<svg width="18" height="26" viewBox="0 0 18 26" fill="none" xmlns="http://www.w3.org/2000/svg">
<path id="Vector" d="M9 0.54126C11.3483 0.54126 13.6004 1.47412 15.2609 3.13461C16.9214 4.7951 17.8542 7.04722 17.8542 9.39551C17.8542 12.406 16.349 15.0496 14.0596 16.656V19.5146C14.0596 19.8501 13.9263 20.1719 13.6891 20.4091C13.4519 20.6463 13.1301 20.7795 12.7947 20.7795H5.20532C4.86985 20.7795 4.54812 20.6463 4.31091 20.4091C4.07369 20.1719 3.94043 19.8501 3.94043 19.5146V16.656C1.65097 15.0496 0.145752 12.406 0.145752 9.39551C0.145752 7.04722 1.07861 4.7951 2.7391 3.13461C4.39959 1.47412 6.65171 0.54126 9 0.54126ZM5.20532 24.5742V23.3093H12.7947V24.5742C12.7947 24.9097 12.6614 25.2314 12.4242 25.4686C12.187 25.7058 11.8653 25.8391 11.5298 25.8391H6.47021C6.13474 25.8391 5.81301 25.7058 5.5758 25.4686C5.33859 25.2314 5.20532 24.9097 5.20532 24.5742ZM9 3.07104C7.32265 3.07104 5.714 3.73737 4.52793 4.92344C3.34186 6.1095 2.67554 7.71816 2.67554 9.39551C2.67554 11.9885 4.23136 14.2147 6.47021 15.1887V18.2498H11.5298V15.1887C13.7686 14.2147 15.3245 11.9885 15.3245 9.39551C15.3245 7.71816 14.6581 6.1095 13.4721 4.92344C12.286 3.73737 10.6774 3.07104 9 3.07104Z" fill="#00A665"/>
</svg>
