<svg width="28" height="21" viewBox="0 0 28 21" fill="none" xmlns="http://www.w3.org/2000/svg">
<g id="Group">
<path id="Vector" fill-rule="evenodd" clip-rule="evenodd" d="M0.696033 9.48215C0.977007 9.17021 1.37036 8.98264 1.78961 8.96067C2.20885 8.9387 2.61966 9.08413 2.9317 9.36498L8.21052 14.115C8.51303 14.3984 8.69234 14.7891 8.70994 15.2032C8.72755 15.6174 8.58205 16.0219 8.30468 16.3299C8.02732 16.638 7.64022 16.825 7.22651 16.8507C6.81281 16.8765 6.40549 16.739 6.09203 16.4678L0.8132 11.7178C0.501268 11.4368 0.313694 11.0435 0.291723 10.6242C0.269751 10.205 0.41518 9.79419 0.696033 9.48215Z" fill="#00A665"/>
<path id="Vector_2" fill-rule="evenodd" clip-rule="evenodd" d="M8.32774 4.7319C8.60859 5.04394 8.75402 5.45475 8.73205 5.87399C8.71008 6.29324 8.5225 6.68659 8.21057 6.96756L2.93175 11.7176C2.77809 11.8615 2.59725 11.9734 2.39984 12.0466C2.20242 12.1198 1.99238 12.1529 1.78201 12.144C1.57165 12.135 1.36518 12.0842 1.17468 11.9945C0.984193 11.9048 0.813507 11.778 0.672617 11.6215C0.531726 11.465 0.423461 11.282 0.354156 11.0832C0.284852 10.8844 0.2559 10.6737 0.268996 10.4636C0.282091 10.2534 0.336971 10.048 0.430423 9.85933C0.523876 9.67065 0.654023 9.5025 0.81325 9.36473L6.09208 4.61473C6.40412 4.33388 6.81492 4.18845 7.23417 4.21042C7.65341 4.2324 8.04677 4.41997 8.32774 4.7319ZM27.3277 9.4819C27.6086 9.79394 27.754 10.2047 27.732 10.624C27.7101 11.0432 27.5225 11.4366 27.2106 11.7176L21.9317 16.4676C21.7781 16.6115 21.5972 16.7234 21.3998 16.7966C21.2024 16.8698 20.9924 16.9029 20.782 16.894C20.5716 16.885 20.3652 16.8342 20.1747 16.7445C19.9842 16.6548 19.8135 16.528 19.6726 16.3715C19.5317 16.215 19.4234 16.032 19.3541 15.8332C19.2848 15.6344 19.2559 15.4237 19.269 15.2136C19.2821 15.0034 19.3369 14.798 19.4304 14.6093C19.5239 14.4206 19.654 14.2525 19.8132 14.1147L25.0921 9.36473C25.4041 9.08388 25.8149 8.93845 26.2341 8.96042C26.6534 8.98239 27.0467 9.16996 27.3277 9.4819Z" fill="#00A665"/>
<path id="Vector_3" fill-rule="evenodd" clip-rule="evenodd" d="M19.6959 4.73206C19.9769 4.42013 20.3702 4.23256 20.7895 4.21059C21.2087 4.18861 21.6195 4.33404 21.9316 4.6149L27.2104 9.36489C27.5129 9.64828 27.6922 10.039 27.7098 10.4531C27.7274 10.8673 27.5819 11.2718 27.3046 11.5798C27.0272 11.8879 26.6401 12.0749 26.2264 12.1006C25.8127 12.1264 25.4054 11.9889 25.0919 11.7177L19.8131 6.96773C19.5011 6.68675 19.3136 6.2934 19.2916 5.87415C19.2696 5.45491 19.415 5.0441 19.6959 4.73206ZM16.8032 0.305067C17.0038 0.359715 17.1918 0.453363 17.3562 0.580661C17.5207 0.707958 17.6585 0.866412 17.7617 1.04697C17.8649 1.22753 17.9316 1.42665 17.9578 1.63297C17.984 1.83928 17.9694 2.04875 17.9147 2.2494L13.1647 19.666C13.11 19.8667 13.0163 20.0546 12.889 20.2191C12.7617 20.3835 12.6032 20.5213 12.4227 20.6245C12.2421 20.7277 12.043 20.7943 11.8367 20.8206C11.6304 20.8469 11.421 20.8322 11.2203 20.7775C11.0197 20.7229 10.8318 20.6292 10.6673 20.5019C10.5029 20.3746 10.3651 20.2161 10.2619 20.0356C10.1587 19.855 10.092 19.6559 10.0658 19.4496C10.0395 19.2433 10.0541 19.0339 10.1088 18.8332L14.8588 1.41657C14.9135 1.2159 15.0071 1.02796 15.1344 0.863487C15.2617 0.699017 15.4202 0.561238 15.6007 0.45802C15.7813 0.354802 15.9804 0.288168 16.1867 0.261924C16.393 0.23568 16.6025 0.25034 16.8032 0.305067Z" fill="#00A665"/>
</g>
</svg>
