<svg width="110" height="13" viewBox="0 0 110 13" fill="none" xmlns="http://www.w3.org/2000/svg">
<path d="M5.9836 12.4192C4.35618 12.4192 2.99874 11.9092 1.91129 10.8892C0.823841 9.86927 0.276367 8.44059 0.276367 6.59567C0.276367 4.75076 0.823841 3.33707 1.91879 2.31337C3.01374 1.28967 4.36743 0.77594 5.9836 0.77594C7.41604 0.77594 8.61223 1.15092 9.57594 1.89714C10.5396 2.64335 11.0984 3.62956 11.2521 4.85575H8.69848C8.62348 4.27078 8.331 3.79455 7.82102 3.42332C7.31104 3.05584 6.69982 2.87209 5.9836 2.87209C5.03115 2.87209 4.25118 3.19833 3.64371 3.84705C3.03624 4.49577 2.7325 5.41448 2.7325 6.59567C2.7325 7.77687 3.03624 8.69183 3.64371 9.3368C4.25118 9.98177 5.03115 10.3043 5.9836 10.3043C6.71107 10.3043 7.32979 10.1243 7.84352 9.76053C8.35724 9.39679 8.66473 8.92431 8.76223 8.33934H11.1996C11.0909 9.56553 10.5584 10.5517 9.59844 11.298C8.63848 12.0442 7.43479 12.4192 5.97985 12.4192H5.9836Z" fill="#1E1E1E"/>
<path d="M17.7356 5.98074H16.3857C15.8419 5.98074 15.437 6.18698 15.167 6.59946C14.897 7.01194 14.762 7.58191 14.762 8.30563V12.2879H12.4858V4.09457H14.762V5.45951C14.9795 4.96078 15.2457 4.6083 15.5682 4.40206C15.8869 4.19582 16.3032 4.09457 16.8131 4.09457H17.7393V5.98074H17.7356Z" fill="#1E1E1E"/>
<path d="M23.9978 9.50928H26.2102C26.049 10.3867 25.6103 11.0917 24.8941 11.6242C24.1778 12.1567 23.3154 12.4192 22.3104 12.4192C20.998 12.4192 19.9705 11.9954 19.2206 11.1442C18.4744 10.293 18.0994 9.30304 18.0994 8.1781C18.0994 7.05315 18.4481 6.05194 19.1493 5.21948C19.8468 4.38327 20.848 3.96704 22.1492 3.96704C23.4504 3.96704 24.4891 4.36827 25.1715 5.17074C25.854 5.9732 26.1952 6.90316 26.1952 7.96811C26.1952 8.21934 26.184 8.46308 26.1615 8.69932H20.2743C20.3605 9.2843 20.5818 9.74177 20.9342 10.0718C21.2867 10.4017 21.7442 10.5667 22.3067 10.5667C23.2479 10.5667 23.8141 10.2143 23.9978 9.50928ZM22.1454 5.62446C21.1067 5.62446 20.4918 6.17194 20.308 7.26689H23.9341C23.9003 6.79066 23.7279 6.39693 23.4129 6.08944C23.0979 5.78196 22.6742 5.62446 22.1454 5.62446Z" fill="#1E1E1E"/>
<path d="M30.3536 12.4192C29.3449 12.4192 28.5312 12.1567 27.905 11.6317C27.2825 11.1067 26.9488 10.4055 26.9038 9.52803H28.8537C28.8987 9.89552 29.0525 10.188 29.3187 10.398C29.5849 10.608 29.9299 10.7167 30.3499 10.7167C30.6949 10.7167 30.9799 10.6417 31.2049 10.488C31.4261 10.338 31.5386 10.1468 31.5386 9.91802C31.5386 9.61428 31.3848 9.39304 31.0849 9.25055C30.7811 9.10805 30.4136 9.01056 29.9787 8.95056C29.5437 8.89056 29.1125 8.80057 28.685 8.68057C28.2575 8.56058 27.89 8.31684 27.5863 7.94936C27.2825 7.58187 27.1325 7.07565 27.1325 6.43818C27.1325 5.72196 27.41 5.13324 27.9613 4.66451C28.5125 4.19953 29.2137 3.96704 30.0574 3.96704C31.0436 3.96704 31.8423 4.21078 32.4573 4.69826C33.0685 5.18573 33.3985 5.8307 33.4398 6.63317H31.4711C31.4261 6.29568 31.2724 6.0332 31.0061 5.8457C30.7399 5.65446 30.4436 5.56072 30.1212 5.56072C29.7987 5.56072 29.5362 5.63196 29.3412 5.77071C29.1462 5.9132 29.0487 6.10819 29.0487 6.35568C29.0487 6.65942 29.2025 6.87316 29.5137 6.9969C29.8212 7.12065 30.1962 7.20689 30.6349 7.24814C31.0736 7.29314 31.5123 7.36813 31.9511 7.47688C32.3898 7.58562 32.7648 7.83311 33.0723 8.22309C33.3798 8.61308 33.5373 9.1493 33.5373 9.83177C33.5373 10.6117 33.2485 11.238 32.6673 11.7104C32.0861 12.1829 31.3136 12.4192 30.3499 12.4192H30.3536Z" fill="#1E1E1E"/>
<path d="M35.7496 1.67218H38.0107V4.09457H40.2044V5.98073H38.0107V9.21683C38.0107 9.9968 38.397 10.3868 39.1657 10.3868H40.2044V12.2879H38.8544C37.902 12.2879 37.1445 12.0292 36.5858 11.508C36.0271 10.9868 35.7496 10.2555 35.7496 9.31433V5.98073H34.1709V4.09457H35.7496V1.67218Z" fill="#1E1E1E"/>
<path d="M44.0929 12.2879V3.0071H40.7256V0.91095H49.8939V3.0071H46.5266V12.2917H44.0892L44.0929 12.2879Z" fill="#1E1E1E"/>
<path d="M54.8553 9.50928H57.0677C56.9064 10.3867 56.4677 11.0917 55.7515 11.6242C55.0353 12.1567 54.1728 12.4192 53.1678 12.4192C51.8554 12.4192 50.828 11.9954 50.078 11.1442C49.3318 10.293 48.9568 9.30304 48.9568 8.1781C48.9568 7.05315 49.3055 6.05194 50.0067 5.21948C50.7042 4.38327 51.7054 3.96704 53.0066 3.96704C54.3078 3.96704 55.3465 4.36827 56.029 5.17074C56.7114 5.9732 57.0527 6.90316 57.0527 7.96811C57.0527 8.21934 57.0414 8.46308 57.0189 8.69932H51.1317C51.2179 9.2843 51.4392 9.74177 51.7917 10.0718C52.1441 10.4017 52.6016 10.5667 53.1641 10.5667C54.1053 10.5667 54.6715 10.2143 54.8553 9.50928ZM53.0029 5.62446C51.9642 5.62446 51.3492 6.17194 51.1654 7.26689H54.7915C54.7578 6.79066 54.5853 6.39693 54.2703 6.08944C53.9553 5.78196 53.5316 5.62446 53.0029 5.62446Z" fill="#1E1E1E"/>
<path d="M62.1035 12.4192C60.8585 12.4192 59.8424 12.0179 59.0549 11.2155C58.2674 10.413 57.8774 9.40429 57.8774 8.1931C57.8774 6.9819 58.2712 5.96945 59.0549 5.17074C59.8424 4.36827 60.8585 3.96704 62.1035 3.96704C63.1872 3.96704 64.1059 4.26703 64.8596 4.8595C65.6133 5.45572 66.0258 6.22444 66.1046 7.16939H63.8284C63.7647 6.80191 63.5734 6.49817 63.2584 6.25819C62.9435 6.0182 62.5797 5.90195 62.171 5.90195C61.5748 5.90195 61.1023 6.11194 60.7573 6.53567C60.4086 6.9594 60.2361 7.51063 60.2361 8.1931C60.2361 8.87556 60.4123 9.42679 60.7648 9.84302C61.1173 10.2593 61.5973 10.4692 62.2047 10.4692C62.6172 10.4692 62.9735 10.3567 63.2772 10.128C63.5809 9.89927 63.7759 9.60303 63.8622 9.23555H66.1721C66.0521 10.1468 65.6096 10.9042 64.8484 11.5117C64.0834 12.1192 63.1722 12.4229 62.1072 12.4229L62.1035 12.4192Z" fill="#1E1E1E"/>
<path d="M67.4544 12.2879V0.53598H69.7156V5.23451C70.2143 4.3908 71.0505 3.96707 72.2205 3.96707C73.1317 3.96707 73.8666 4.26706 74.4216 4.85953C74.9803 5.45575 75.2578 6.23197 75.2578 7.18442V12.2879H72.9967V7.6869C72.9967 7.18817 72.8467 6.77944 72.5504 6.46071C72.2505 6.14197 71.8717 5.98073 71.403 5.98073C70.9043 5.98073 70.4993 6.15322 70.1843 6.49446C69.8693 6.83569 69.7118 7.27067 69.7118 7.80315V12.2917H67.4507L67.4544 12.2879Z" fill="#1E1E1E"/>
<path d="M87.6961 0.91095H90.1523V12.2917H87.6961V7.52939H83.0126V12.2917H80.5752V0.91095H83.0126V5.42949H87.6961V0.91095Z" fill="#1E1E1E"/>
<path d="M99.8381 4.09457V12.2879H97.5619V11.148C97.0632 11.9917 96.2345 12.4154 95.0758 12.4154C94.1646 12.4154 93.4296 12.1155 92.8709 11.5117C92.3122 10.9118 92.0347 10.1393 92.0347 9.19434V4.09457H94.2958V8.69561C94.2958 9.19434 94.4421 9.60307 94.7345 9.92181C95.027 10.2405 95.4058 10.4018 95.8745 10.4018C96.3432 10.4018 96.767 10.2293 97.0857 9.88056C97.4044 9.53557 97.5657 9.10059 97.5657 8.57937V4.09457H99.8418H99.8381Z" fill="#1E1E1E"/>
<path d="M106.13 12.4192C105.122 12.4192 104.375 12.0779 103.888 11.3955V12.2879H101.627V0.53598H103.888V4.95703C104.387 4.29706 105.144 3.96332 106.164 3.96332C107.345 3.96332 108.279 4.3458 108.969 5.11077C109.655 5.87573 110 6.90319 110 8.19313C110 9.48307 109.655 10.5105 108.969 11.2755C108.279 12.0405 107.334 12.4229 106.13 12.4229V12.4192ZM105.774 10.4693C106.37 10.4693 106.854 10.2593 107.221 9.84305C107.589 9.42682 107.773 8.8756 107.773 8.19313C107.773 7.51066 107.589 6.94443 107.221 6.5282C106.854 6.11197 106.37 5.90198 105.774 5.90198C105.178 5.90198 104.679 6.11197 104.312 6.5282C103.944 6.94443 103.76 7.49941 103.76 8.19313C103.76 8.88685 103.944 9.42682 104.312 9.84305C104.679 10.2593 105.167 10.4693 105.774 10.4693Z" fill="#1E1E1E"/>
</svg>
