<svg width="19" height="22" viewBox="0 0 19 22" fill="none" xmlns="http://www.w3.org/2000/svg">
<path d="M5.0683 17.9409C4.88479 17.4087 4.71523 16.8673 4.55962 16.3168C4.404 15.7663 4.27995 15.2158 4.18746 14.6652L2.89374 15.5461V18.8217L5.0683 17.9409ZM9.11463 3.2144C8.2338 4.15029 7.52729 5.38455 6.99512 6.91721C6.46295 8.44986 6.19687 10.06 6.19687 11.7475C6.19687 12.8485 6.29779 13.9268 6.49965 14.9823C6.70151 16.0379 6.9676 16.9323 7.29791 17.6656H11.7021C12.0324 16.9316 12.2985 16.0371 12.5003 14.9823C12.7022 13.9275 12.8031 12.8493 12.8031 11.7475C12.8031 10.0592 12.537 8.44913 12.0049 6.91721C11.4727 5.38529 10.7662 4.15102 9.88536 3.2144C9.83031 3.15935 9.77085 3.11824 9.70699 3.09108C9.64313 3.06392 9.57413 3.04998 9.5 3.04924C9.42586 3.04851 9.35723 3.06245 9.2941 3.09108C9.23097 3.11971 9.17115 3.16081 9.11463 3.2144ZM9.5 12.1604C8.89442 12.1604 8.3762 11.9449 7.94532 11.5141C7.51445 11.0832 7.29864 10.5646 7.29791 9.95829C7.29718 9.35198 7.51298 8.83376 7.94532 8.40362C8.37767 7.97347 8.89589 7.75767 9.5 7.7562C10.1041 7.75473 10.6227 7.97054 11.0558 8.40362C11.4888 8.83669 11.7043 9.35492 11.7021 9.95829C11.6999 10.5617 11.4844 11.0803 11.0558 11.5141C10.6271 11.9479 10.1085 12.1633 9.5 12.1604ZM13.9317 17.9409L16.1063 18.8217V15.5461L14.8125 14.6652C14.7208 15.2158 14.5971 15.7663 14.4415 16.3168C14.2859 16.8673 14.1159 17.4087 13.9317 17.9409ZM10.3533 0.709525C11.8948 2.03078 13.0556 3.65482 13.8359 5.58164C14.6162 7.50847 15.0059 9.70138 15.0052 12.1604L17.3174 13.7018C17.6294 13.9037 17.8727 14.1698 18.0474 14.5001C18.2221 14.8304 18.3091 15.1791 18.3083 15.5461V20.4457C18.3083 20.8311 18.148 21.1339 17.8272 21.3541C17.5064 21.5743 17.1622 21.611 16.7944 21.4642L12.8307 19.8677H6.16934L2.20558 21.4642C1.83857 21.611 1.49468 21.5743 1.17391 21.3541C0.853137 21.1339 0.692384 20.8311 0.69165 20.4457V15.5461C0.69165 15.1791 0.779 14.8304 0.953699 14.5001C1.1284 14.1698 1.37136 13.9037 1.68259 13.7018L3.99478 12.1604C3.99478 9.70138 4.38492 7.50847 5.16519 5.58164C5.94546 3.65482 7.10559 2.03078 8.64559 0.709525C8.77404 0.617771 8.91167 0.544369 9.05848 0.489317C9.20528 0.434264 9.35209 0.406738 9.49889 0.406738C9.6457 0.406738 9.79251 0.434264 9.93931 0.489317C10.0861 0.544369 10.2248 0.617771 10.3533 0.709525Z" fill="white"/>
</svg>
