<svg width="98" height="93" viewBox="0 0 98 93" fill="none" xmlns="http://www.w3.org/2000/svg">
<g filter="url(#filter0_d_2461_1277)">
<rect x="27.0852" y="19.5168" width="51.8618" height="46.2852" rx="11.1531" transform="rotate(9.62252 27.0852 19.5168)" fill="#00A665"/>
<rect x="27.9984" y="20.8029" width="49.6311" height="44.0546" rx="10.0378" transform="rotate(9.62252 27.9984 20.8029)" stroke="white" stroke-width="2.23061"/>
<g clip-path="url(#clip0_2461_1277)">
<path fill-rule="evenodd" clip-rule="evenodd" d="M46.7293 38.203L37.7382 42.0563C37.6125 42.1102 37.5054 42.1997 37.4301 42.3139C37.3548 42.4281 37.3147 42.5618 37.3147 42.6986C37.3147 42.8353 37.3548 42.9691 37.4301 43.0832C37.5054 43.1974 37.6125 43.2869 37.7382 43.3408L46.7293 47.1941C47.2785 47.4294 47.8698 47.5507 48.4672 47.5505L49.0989 47.5505C49.6963 47.5507 50.2876 47.4294 50.8368 47.1941L59.8279 43.3408C59.9536 43.2869 60.0607 43.1974 60.136 43.0832C60.2113 42.9691 60.2514 42.8353 60.2514 42.6986C60.2514 42.5618 60.2113 42.4281 60.136 42.3139C60.0607 42.1997 59.9536 42.1102 59.8279 42.0563L50.8368 38.203C50.2876 37.9677 49.6963 37.8465 49.0989 37.8466L48.4672 37.8466C47.8698 37.8465 47.2785 37.9677 46.7293 38.203ZM37.3147 46.0367L39.9613 47.173L39.9613 52.8683C39.9613 53.5237 40.1439 54.1662 40.4885 54.7237C40.8332 55.2813 41.3263 55.7317 41.9126 56.0247L43.3347 56.7358C45.0295 57.583 46.8965 58.0289 48.7913 58.039C50.686 58.0491 52.5576 57.6231 54.2614 56.794L55.8652 56.0141C56.4602 55.7247 56.9618 55.2737 57.3128 54.7128C57.6637 54.1518 57.8499 53.5035 57.8501 52.8418L57.8501 47.0671L60.8706 45.7721C61.4716 45.5138 61.9838 45.085 62.3436 44.5388C62.7034 43.9925 62.8952 43.3527 62.8952 42.6986C62.8952 42.0444 62.7034 41.4046 62.3436 40.8584C61.9838 40.3121 61.4716 39.8833 60.8706 39.6251L51.8795 35.7699C51.0008 35.3936 50.0548 35.1997 49.0989 35.2001L48.4672 35.2001C47.5113 35.1997 46.5653 35.3936 45.6866 35.7699L36.6972 39.6251C36.0959 39.8834 35.5834 40.3121 35.2228 40.8582C34.8623 41.4044 34.6695 42.0441 34.6682 42.6986L34.6682 50.6382C34.6682 50.9891 34.8076 51.3257 35.0558 51.5738C35.3039 51.822 35.6405 51.9614 35.9915 51.9614C36.3424 51.9614 36.679 51.822 36.9272 51.5738C37.1753 51.3257 37.3147 50.9891 37.3147 50.6382L37.3147 46.0367ZM42.6078 52.8683L42.6078 48.3074L45.6866 49.6272C46.5653 50.0035 47.5113 50.1974 48.4672 50.1971L49.0989 50.1971C50.0548 50.1974 51.0008 50.0035 51.8795 49.6272L55.2035 48.2016L55.2035 52.8418C55.2035 53.0075 55.1569 53.1699 55.0689 53.3103C54.9809 53.4508 54.8551 53.5635 54.706 53.6358L53.1022 54.4156C51.7636 55.0665 50.2932 55.4008 48.8048 55.3925C47.3164 55.3842 45.8499 55.0337 44.5186 54.368L43.0948 53.657C42.9484 53.5836 42.8254 53.471 42.7394 53.3317C42.6534 53.1925 42.6078 53.032 42.6078 52.8683Z" fill="white"/>
</g>
</g>
<defs>
<filter id="filter0_d_2461_1277" x="-1.28484" y="-1.11633" width="100.135" height="95.5694" filterUnits="userSpaceOnUse" color-interpolation-filters="sRGB">
<feFlood flood-opacity="0" result="BackgroundImageFix"/>
<feColorMatrix in="SourceAlpha" type="matrix" values="0 0 0 0 0 0 0 0 0 0 0 0 0 0 0 0 0 0 127 0" result="hardAlpha"/>
<feMorphology radius="5.57653" operator="dilate" in="SourceAlpha" result="effect1_dropShadow_2461_1277"/>
<feOffset/>
<feGaussianBlur stdDeviation="7.52832"/>
<feComposite in2="hardAlpha" operator="out"/>
<feColorMatrix type="matrix" values="0 0 0 0 0 0 0 0 0 0 0 0 0 0 0 0 0 0 0.06 0"/>
<feBlend mode="normal" in2="BackgroundImageFix" result="effect1_dropShadow_2461_1277"/>
<feBlend mode="normal" in="SourceGraphic" in2="effect1_dropShadow_2461_1277" result="shape"/>
</filter>
<clipPath id="clip0_2461_1277">
<rect width="28.2297" height="28.2297" fill="white" transform="translate(34.668 32.5535)"/>
</clipPath>
</defs>
</svg>
