<svg width="184" height="202" viewBox="0 0 184 202" fill="none" xmlns="http://www.w3.org/2000/svg">
<path d="M55.4426 7.94711C79.8812 14.0751 151.33 5.39379 184 0.287168V-13.2454C184 -16.82 139.96 -6.35145 126.213 -9.67075C112.466 -12.9901 15.7298 -11.9687 12.4204 -13.2454C9.77285 -14.2667 -4.29634 -4.64924 -11 0.287168V107.016V166.252L1.98302 206.595L42.9687 226L63.5888 206.595C59.0065 203.531 44.4961 193.42 23.1123 177.487C-3.6175 157.571 6.81984 143.017 15.7298 117.484C24.6397 91.9511 -0.0535297 66.418 1.98302 37.0549C4.01958 7.69177 24.8943 0.287169 55.4426 7.94711Z" fill="#00A665"/>
</svg>
