<svg width="269" height="242" viewBox="0 0 269 242" fill="none" xmlns="http://www.w3.org/2000/svg">
<path d="M89.0196 9.61399C123.234 18.1676 223.262 6.04999 269 -1.078V-19.9672C269 -24.9568 207.343 -10.3444 188.098 -14.9776C168.852 -19.6108 33.4217 -18.1852 28.7885 -19.9672C25.082 -21.3928 5.38512 -7.9684 -4 -1.078V147.897V230.582L14.1762 286.893L71.5561 313.979L100.424 286.893C94.0091 282.616 73.6945 268.503 43.7572 246.263C6.33551 218.464 20.9478 198.15 33.4217 162.51C45.8956 126.87 11.3251 91.2296 14.1762 50.2436C17.0274 9.25759 46.252 -1.078 89.0196 9.61399Z" fill="#00A665"/>
</svg>
