<svg width="22" height="21" viewBox="0 0 22 21" fill="none" xmlns="http://www.w3.org/2000/svg">
<g id="Group">
<path id="Vector" d="M1.78456 19.7423L8.47339 13.0535M16.8964 10.079L14.8942 16.0857C14.8623 16.182 14.8075 16.2692 14.7347 16.3398C14.6619 16.4104 14.5731 16.4624 14.4759 16.4914L2.20183 20.1396C2.09125 20.1724 1.97378 20.1743 1.8622 20.145C1.75063 20.1158 1.64922 20.0564 1.56902 19.9735C1.48882 19.8906 1.4329 19.7873 1.40734 19.6748C1.38178 19.5623 1.38756 19.445 1.42406 19.3356L5.40961 7.381C5.43817 7.29517 5.48487 7.21648 5.54653 7.15029C5.60819 7.0841 5.68337 7.03195 5.76696 6.99737L11.4289 4.66616C11.544 4.61862 11.6706 4.60623 11.7928 4.63055C11.9149 4.65486 12.0271 4.7148 12.1153 4.8028L16.744 9.43369C16.8269 9.51649 16.885 9.62073 16.9119 9.73471C16.9388 9.84869 16.9335 9.96792 16.8964 10.079Z" stroke="#00A665" stroke-width="1.57656" stroke-linecap="round" stroke-linejoin="round"/>
<path id="Vector_2" d="M17.0205 9.70903L19.9928 6.73563C20.3869 6.34144 20.6083 5.80686 20.6083 5.24946C20.6083 4.69207 20.3869 4.15749 19.9928 3.76329L17.7646 1.53298C17.5694 1.33769 17.3376 1.18278 17.0826 1.07709C16.8275 0.971392 16.554 0.916992 16.2779 0.916992C16.0018 0.916992 15.7284 0.971392 15.4733 1.07709C15.2182 1.18278 14.9864 1.33769 14.7912 1.53298L11.8189 4.50638M10.7027 10.8231C10.5562 10.6768 10.3824 10.5607 10.1911 10.4815C9.99977 10.4023 9.79473 10.3615 9.58768 10.3616C9.38062 10.3616 9.1756 10.4025 8.98433 10.4818C8.79306 10.561 8.61927 10.6772 8.47289 10.8237C8.32652 10.9701 8.21042 11.1439 8.13123 11.3353C8.05204 11.5266 8.0113 11.7316 8.01135 11.9387C8.0114 12.1457 8.05223 12.3507 8.13151 12.542C8.21079 12.7333 8.32697 12.9071 8.47342 13.0534C8.76918 13.3491 9.17025 13.5151 9.58842 13.515C10.0066 13.5149 10.4076 13.3487 10.7032 13.0529C10.9988 12.7572 11.1648 12.3561 11.1647 11.9379C11.1646 11.5198 10.9984 11.1188 10.7027 10.8231Z" stroke="#00A665" stroke-width="1.57656" stroke-linecap="round" stroke-linejoin="round"/>
</g>
</svg>
