<svg width="105" height="100" viewBox="0 0 105 100" fill="none" xmlns="http://www.w3.org/2000/svg">
<g filter="url(#filter0_d_2461_1280)">
<rect x="20.8569" y="29.5143" width="55.8315" height="49.8281" rx="12.0068" transform="rotate(-8.6061 20.8569 29.5143)" fill="#1E1E1E"/>
<rect x="22.2238" y="30.5218" width="53.4301" height="47.4267" rx="10.8061" transform="rotate(-8.6061 22.2238 30.5218)" stroke="white" stroke-width="2.40135"/>
<g clip-path="url(#clip0_2461_1280)">
<path d="M64.4938 52.396L64.0623 52.396L64.0623 43.3346C64.0623 42.5335 63.7441 41.7653 63.1776 41.1988C62.6112 40.6324 61.8429 40.3141 61.0418 40.3141L45.5081 40.3141C44.707 40.3141 43.9387 40.6324 43.3723 41.1988C42.8059 41.7653 42.4876 42.5335 42.4876 43.3346L42.4876 52.396L42.0561 52.396C41.7128 52.396 41.3836 52.5323 41.1408 52.7751C40.898 53.0179 40.7617 53.3471 40.7617 53.6904L40.7617 56.2794C40.7617 57.0805 41.0799 57.8487 41.6463 58.4152C42.2128 58.9816 42.981 59.2999 43.7821 59.2999L62.7678 59.2999C63.5689 59.2999 64.3372 58.9816 64.9036 58.4152C65.47 57.8487 65.7883 57.0805 65.7883 56.2794L65.7883 53.6904C65.7883 53.3471 65.6519 53.0179 65.4091 52.7751C65.1664 52.5323 64.8371 52.396 64.4938 52.396ZM45.0766 43.3346C45.0766 43.2202 45.1221 43.1104 45.203 43.0295C45.2839 42.9486 45.3936 42.9031 45.5081 42.9031L61.0418 42.9031C61.1563 42.9031 61.266 42.9486 61.347 43.0295C61.4279 43.1104 61.4733 43.2202 61.4733 43.3346L61.4733 52.396L45.0766 52.396L45.0766 43.3346ZM63.1993 56.2794C63.1993 56.3938 63.1538 56.5036 63.0729 56.5845C62.992 56.6654 62.8823 56.7109 62.7678 56.7109L43.7821 56.7109C43.6677 56.7109 43.5579 56.6654 43.477 56.5845C43.3961 56.5036 43.3506 56.3938 43.3506 56.2794L43.3506 54.9849L63.1993 54.9849L63.1993 56.2794ZM56.2954 45.9236C56.2954 46.2669 56.159 46.5961 55.9163 46.8389C55.6735 47.0817 55.3443 47.218 55.0009 47.218L51.549 47.218C51.2057 47.218 50.8764 47.0817 50.6337 46.8389C50.3909 46.5961 50.2545 46.2669 50.2545 45.9236C50.2545 45.5802 50.3909 45.251 50.6337 45.0082C50.8764 44.7655 51.2057 44.6291 51.549 44.6291L55.0009 44.6291C55.3443 44.6291 55.6735 44.7655 55.9163 45.0082C56.159 45.251 56.2954 45.5802 56.2954 45.9236Z" fill="white"/>
</g>
</g>
<defs>
<filter id="filter0_d_2461_1280" x="-1.35559" y="-1.05291" width="107.084" height="102.047" filterUnits="userSpaceOnUse" color-interpolation-filters="sRGB">
<feFlood flood-opacity="0" result="BackgroundImageFix"/>
<feColorMatrix in="SourceAlpha" type="matrix" values="0 0 0 0 0 0 0 0 0 0 0 0 0 0 0 0 0 0 127 0" result="hardAlpha"/>
<feMorphology radius="6.00338" operator="dilate" in="SourceAlpha" result="effect1_dropShadow_2461_1280"/>
<feOffset/>
<feGaussianBlur stdDeviation="8.10457"/>
<feComposite in2="hardAlpha" operator="out"/>
<feColorMatrix type="matrix" values="0 0 0 0 0 0 0 0 0 0 0 0 0 0 0 0 0 0 0.06 0"/>
<feBlend mode="normal" in2="BackgroundImageFix" result="effect1_dropShadow_2461_1280"/>
<feBlend mode="normal" in="SourceGraphic" in2="effect1_dropShadow_2461_1280" result="shape"/>
</filter>
<clipPath id="clip0_2461_1280">
<rect width="30.3905" height="30.3905" fill="white" transform="translate(33.0006 40.291) rotate(-18.2286)"/>
</clipPath>
</defs>
</svg>
