<svg width="14" height="14" viewBox="0 0 14 14" fill="none" xmlns="http://www.w3.org/2000/svg">
<g id="twemoji:check-mark" clip-path="url(#clip0_4017_2485)">
<path id="Vector" d="M13.0773 0.86154C12.8309 0.701711 12.5311 0.646309 12.2438 0.707519C11.9565 0.768728 11.7053 0.941537 11.5454 1.18794L5.33863 10.7551L2.31168 7.95631C2.20488 7.85756 2.07968 7.78082 1.94323 7.73046C1.80678 7.6801 1.66174 7.65711 1.5164 7.6628C1.22287 7.67429 0.945935 7.80192 0.746509 8.0176C0.547082 8.23328 0.441503 8.51935 0.452998 8.81288C0.464492 9.10641 0.592119 9.38334 0.807801 9.58277L4.7822 13.2574C4.7822 13.2574 4.89629 13.3556 4.94909 13.3899C5.07113 13.4691 5.20758 13.5235 5.35064 13.5499C5.4937 13.5764 5.64056 13.5744 5.78286 13.5441C5.92515 13.5138 6.06008 13.4558 6.17993 13.3733C6.29979 13.2908 6.40223 13.1856 6.4814 13.0635L13.4037 2.39348C13.5636 2.14704 13.619 1.8472 13.5578 1.55992C13.4966 1.27264 13.3237 1.02143 13.0773 0.86154Z" fill="#00A665"/>
</g>
<defs>
<clipPath id="clip0_4017_2485">
<rect width="13.2923" height="13.2923" fill="white" transform="translate(0.353516 0.353851)"/>
</clipPath>
</defs>
</svg>
