<svg width="209" height="111" viewBox="0 0 209 111" fill="none" xmlns="http://www.w3.org/2000/svg">
<g filter="url(#filter0_dd_3732_4862)">
<rect x="21.5999" y="10.7454" width="166.477" height="68.7291" rx="12.2546" stroke="#6D737A" stroke-width="0.509104"/>
<path d="M97.1738 49.3046V44.2095C97.1738 42.2582 95.9813 40.9844 93.9487 40.9844C92.9188 40.9844 91.8347 41.3367 91.0488 42.4208C90.4525 41.4993 89.6124 40.9844 88.3386 40.9844C87.4985 40.9844 86.6312 41.2283 85.9537 42.1769V41.147H84.192V49.3046H85.9808V44.8057C85.9808 43.3693 86.7396 42.6918 87.9321 42.6918C89.1246 42.6918 89.7208 43.4506 89.7208 44.8057V49.3046H91.5095V44.8057C91.5095 43.3693 92.3497 42.6918 93.4608 42.6918C94.6533 42.6918 95.2495 43.4506 95.2495 44.8057V49.3046H97.1738ZM123.598 41.147H120.698V38.6807H118.909V41.147H117.283V42.7731H118.909V46.5131C118.909 48.3832 119.668 49.4943 121.701 49.4943C122.46 49.4943 123.327 49.2504 123.896 48.8981L123.381 47.3804C122.866 47.7327 122.27 47.814 121.863 47.814C121.023 47.814 120.671 47.2991 120.671 46.4589V42.8002H123.571V41.147H123.598ZM138.694 40.9844C137.664 40.9844 136.986 41.4993 136.58 42.1769V41.147H134.791V49.3046H136.58V44.7244C136.58 43.3693 137.176 42.6105 138.287 42.6105C138.639 42.6105 139.046 42.6918 139.398 42.7731L139.913 41.0657C139.561 40.9844 139.046 40.9844 138.694 40.9844ZM115.847 41.8245C115.007 41.2283 113.814 40.9844 112.54 40.9844C110.508 40.9844 109.153 42.0142 109.153 43.6132C109.153 44.9683 110.183 45.7272 111.944 45.9982L112.784 46.0795C113.706 46.2421 114.221 46.5131 114.221 46.9197C114.221 47.5159 113.543 47.9495 112.351 47.9495C111.158 47.9495 110.237 47.5159 109.641 47.1094L108.8 48.4645C109.722 49.142 110.996 49.4943 112.269 49.4943C114.654 49.4943 116.009 48.3832 116.009 46.8655C116.009 45.4291 114.898 44.6702 113.218 44.3992L112.378 44.3179C111.619 44.2366 111.023 44.074 111.023 43.559C111.023 42.9628 111.619 42.6376 112.54 42.6376C113.57 42.6376 114.573 43.0712 115.088 43.3151L115.847 41.8245ZM163.248 40.9844C162.218 40.9844 161.54 41.4993 161.134 42.1769V41.147H159.345V49.3046H161.134V44.7244C161.134 43.3693 161.73 42.6105 162.841 42.6105C163.194 42.6105 163.6 42.6918 163.952 42.7731L164.467 41.0657C164.088 40.9844 163.573 40.9844 163.248 40.9844ZM140.482 45.2122C140.482 47.6785 142.19 49.4672 144.819 49.4672C146.011 49.4672 146.851 49.2233 147.718 48.5458L146.878 47.1094C146.201 47.6243 145.523 47.8682 144.764 47.8682C143.328 47.8682 142.298 46.8384 142.298 45.2394C142.298 43.7217 143.328 42.6918 144.764 42.6105C145.523 42.6105 146.201 42.8544 146.878 43.3693L147.718 41.9329C146.878 41.2554 146.011 41.0115 144.819 41.0115C142.19 40.9844 140.482 42.7731 140.482 45.2122ZM156.96 41.147H155.171V42.1769C154.575 41.418 153.735 40.9844 152.624 40.9844C150.32 40.9844 148.559 42.7731 148.559 45.2394C148.559 47.7056 150.347 49.4943 152.624 49.4943C153.816 49.4943 154.656 49.0607 155.171 48.3018V49.3317H156.96V41.147ZM150.429 45.2122C150.429 43.7759 151.35 42.5834 152.895 42.5834C154.331 42.5834 155.361 43.6946 155.361 45.2122C155.361 46.6486 154.331 47.8411 152.895 47.8411C151.35 47.7598 150.429 46.6757 150.429 45.2122ZM129.1 40.9844C126.715 40.9844 125.034 42.6918 125.034 45.2394C125.034 47.7869 126.742 49.4943 129.208 49.4943C130.4 49.4943 131.593 49.142 132.514 48.3832L131.674 47.1094C130.997 47.6243 130.157 47.9495 129.289 47.9495C128.178 47.9495 127.094 47.4346 126.823 45.9982H132.84V45.3207C132.921 42.6647 131.403 40.9844 129.1 40.9844ZM129.1 42.5021C130.211 42.5021 130.97 43.1796 131.132 44.4534H126.877C127.067 43.3693 127.826 42.5021 129.1 42.5021ZM173.357 37.9219H171.568V42.1769C170.972 41.418 170.132 40.9844 169.02 40.9844C166.717 40.9844 164.955 42.7731 164.955 45.2394C164.955 47.7056 166.744 49.4943 169.02 49.4943C170.213 49.4943 171.053 49.0607 171.568 48.3018V49.3317H173.357V37.9219ZM166.798 45.2122C166.798 43.7759 167.719 42.5834 169.264 42.5834C170.701 42.5834 171.731 43.6946 171.731 45.2122C171.731 46.6486 170.701 47.8411 169.264 47.8411C167.747 47.7598 166.798 46.6757 166.798 45.2122ZM107.201 41.147H105.413V42.1769C104.816 41.418 103.976 40.9844 102.865 40.9844C100.561 40.9844 98.7999 42.7731 98.7999 45.2394C98.7999 47.7056 100.589 49.4943 102.865 49.4943C104.058 49.4943 104.898 49.0607 105.413 48.3018V49.3317H107.201V41.147ZM100.589 45.2122C100.589 43.7759 101.51 42.5834 103.055 42.5834C104.491 42.5834 105.521 43.6946 105.521 45.2122C105.521 46.6486 104.491 47.8411 103.055 47.8411C101.51 47.7598 100.589 46.6757 100.589 45.2122Z" fill="#000008"/>
<path d="M61.7484 35.5019H51.0572V54.707H61.7484V35.5019Z" fill="#FF5F00"/>
<path d="M51.7288 45.1099C51.7288 41.2103 53.5594 37.7441 56.3757 35.5019C54.3068 33.8771 51.6963 32.8914 48.8367 32.8914C42.0883 32.8914 36.6182 38.3507 36.6182 45.1099C36.6182 51.8582 42.0775 57.3284 48.8367 57.3284C51.6855 57.3284 54.296 56.3426 56.3757 54.7178C53.5594 52.5081 51.7288 49.0094 51.7288 45.1099Z" fill="#EB001B"/>
<path d="M76.1658 45.1099C76.1658 51.8582 70.7064 57.3284 63.9473 57.3284C61.0985 57.3284 58.4879 56.3427 56.4082 54.7178C59.257 52.4756 61.0551 49.0202 61.0551 45.1099C61.0551 41.2103 59.2245 37.7441 56.4082 35.5019C58.4771 33.8771 61.0876 32.8914 63.9473 32.8914C70.7064 32.8914 76.1658 38.3832 76.1658 45.1099Z" fill="#F79E1B"/>
</g>
<defs>
<filter id="filter0_dd_3732_4862" x="0.981049" y="0.308762" width="207.715" height="109.966" filterUnits="userSpaceOnUse" color-interpolation-filters="sRGB">
<feFlood flood-opacity="0" result="BackgroundImageFix"/>
<feColorMatrix in="SourceAlpha" type="matrix" values="0 0 0 0 0 0 0 0 0 0 0 0 0 0 0 0 0 0 127 0" result="hardAlpha"/>
<feOffset dy="1.01821"/>
<feGaussianBlur stdDeviation="5.09104"/>
<feColorMatrix type="matrix" values="0 0 0 0 0.717647 0 0 0 0 0.717647 0 0 0 0 0.717647 0 0 0 0.08 0"/>
<feBlend mode="normal" in2="BackgroundImageFix" result="effect1_dropShadow_3732_4862"/>
<feColorMatrix in="SourceAlpha" type="matrix" values="0 0 0 0 0 0 0 0 0 0 0 0 0 0 0 0 0 0 127 0" result="hardAlpha"/>
<feOffset dy="10.1821"/>
<feGaussianBlur stdDeviation="10.1821"/>
<feColorMatrix type="matrix" values="0 0 0 0 0.717647 0 0 0 0 0.717647 0 0 0 0 0.717647 0 0 0 0.08 0"/>
<feBlend mode="normal" in2="effect1_dropShadow_3732_4862" result="effect2_dropShadow_3732_4862"/>
<feBlend mode="normal" in="SourceGraphic" in2="effect2_dropShadow_3732_4862" result="shape"/>
</filter>
</defs>
</svg>
