<?xml version="1.0" encoding="UTF-8"?>
<svg version="1.1" xmlns="http://www.w3.org/2000/svg" width="661" height="235">
<path d="M0 0 C33.66 0 67.32 0 102 0 C102 57.75 102 115.5 102 175 C68.34 175 34.68 175 0 175 C0 117.25 0 59.5 0 0 Z " fill="#0C5DA6" transform="translate(559,3)"/>
<path d="M0 0 C33.66 0 67.32 0 102 0 C102 57.75 102 115.5 102 175 C68.34 175 34.68 175 0 175 C0 117.25 0 59.5 0 0 Z " fill="#0C5DA6" transform="translate(0,3)"/>
<path d="M0 0 C3.32679883 -0.03307266 6.65355451 -0.0527973 9.98046875 -0.0703125 C10.91242065 -0.07973877 11.84437256 -0.08916504 12.80456543 -0.09887695 C34.18934001 -0.1830874 55.45240585 7.39199842 72 21 C72.71800781 21.57234375 73.43601562 22.1446875 74.17578125 22.734375 C91.77421605 37.44532913 101.83986689 59.43860976 104 82 C105.58072058 105.90493231 97.73706426 128.15014088 82.3359375 146.33984375 C81.56507813 147.21769531 80.79421875 148.09554687 80 149 C79.31164062 149.78503906 78.62328125 150.57007813 77.9140625 151.37890625 C63.41391181 166.8762792 41.8486541 175.95124685 20.77099609 177.12402344 C-3.13583467 177.90944355 -3.13583467 177.90944355 -12 172 C-10.25036862 168.26633686 -7.97622594 165.11355435 -5.53515625 161.8046875 C-0.71613481 153.00047022 -0.55531693 144.02076589 -0.56762695 134.18701172 C-0.55859377 132.71756678 -0.54826277 131.24812933 -0.53674316 129.77870178 C-0.50932951 125.81865612 -0.4999101 121.85875404 -0.49388909 117.89862585 C-0.48446441 113.74926484 -0.45825792 109.60000938 -0.43388367 105.45071411 C-0.39032709 97.60643147 -0.36171371 89.76216944 -0.33856028 81.91780293 C-0.31145027 72.981767 -0.26754249 64.04583781 -0.22227156 55.1098783 C-0.12958069 36.73997534 -0.05782897 18.37004414 0 0 Z " fill="#0C5DA6" transform="translate(437,1)"/>
<path d="M0 0 C1.09046631 -0.00128906 2.18093262 -0.00257812 3.30444336 -0.00390625 C12.01953009 0.10967059 19.62133142 1.39154998 27.8125 4.375 C27.8125 8.09629368 27.0302686 8.47984489 24.5 11.0625 C17.74749086 18.5107222 16.71379246 26.88920771 16.65428162 36.75950623 C16.6444928 37.99759537 16.63470398 39.23568451 16.62461853 40.5112915 C16.61871598 41.86486778 16.61290544 43.21844446 16.60717773 44.57202148 C16.59758739 46.01146214 16.58757664 47.45090004 16.57717896 48.89033508 C16.55024908 52.78234076 16.52917535 56.67435842 16.50917697 60.56640506 C16.48724351 64.63967468 16.45989097 68.71290788 16.43312073 72.78614807 C16.38329304 80.49240947 16.33831757 88.19869118 16.29509836 95.90499216 C16.24564095 104.68131143 16.19075447 113.45759415 16.13541877 122.23387802 C16.02175115 140.2808847 15.91487923 158.32792592 15.8125 176.375 C11.82293442 176.40614206 7.83340061 176.42483377 3.84375 176.44140625 C2.16200684 176.45476013 2.16200684 176.45476013 0.44628906 176.46838379 C-24.04571758 176.54458513 -45.55675649 167.68684386 -63.10546875 150.6171875 C-78.72362252 134.69562833 -86.84548292 112.58963738 -87.4375 90.5 C-86.83221598 67.42354675 -79.9596066 45.6135833 -64.1875 28.375 C-63.49785156 27.570625 -62.80820313 26.76625 -62.09765625 25.9375 C-46.19857577 8.54363418 -23.21630929 -0.02854099 0 0 Z " fill="#0C5DA6" transform="translate(207.1875,1.625)"/>
<path d="M0 0 C0 31.02 0 62.04 0 94 C-6.75790468 95.12631745 -6.75790468 95.12631745 -10.19091797 95.17700195 C-11.34404984 95.19625481 -11.34404984 95.19625481 -12.52047729 95.21589661 C-13.33614166 95.22328354 -14.15180603 95.23067047 -14.9921875 95.23828125 C-16.28758957 95.25038887 -16.28758957 95.25038887 -17.60916138 95.26274109 C-19.43636095 95.27653162 -21.26358574 95.28727612 -23.09082031 95.29516602 C-24.92911522 95.30661103 -26.76737891 95.32694211 -28.60546875 95.35668945 C-46.76032249 95.64977376 -65.21406276 93.99741137 -79.18359375 81.015625 C-89.64583615 69.40591086 -91.83890775 55.17415636 -91.17041016 40.09179688 C-90.28691181 29.2467914 -84.3913031 19.79495567 -76.38671875 12.67578125 C-54.39675883 -4.15104806 -26.546407 0 0 0 Z " fill="#0C5DA6" transform="translate(423,1)"/>
<path d="M0 0 C55.96932115 0 55.96932115 0 71.375 14.18359375 C81.44919894 25.44441708 84.51946318 38.40333557 83.85546875 53.2265625 C82.58327149 64.71827841 77.70695204 75.60409081 69.01953125 83.39453125 C48.98887802 99.31831941 24.95804033 95 0 95 C0 63.65 0 32.3 0 0 Z " fill="#0C5DA6" transform="translate(237,83)"/>
<path d="M0 0 C8.46644218 8.19941154 12.10655983 17.42064776 12.48046875 29.1015625 C12.10016159 40.89108436 7.46994997 50.25477847 -1.14453125 58.3515625 C-10.17866557 65.54616721 -20.6018697 67.8609004 -31.89453125 67.0390625 C-41.9017621 65.25529628 -50.93781764 60.22570031 -57.359375 52.31640625 C-64.1432989 42.2527227 -66.40681207 31.43033053 -64.20703125 19.5390625 C-61.71255927 9.52628685 -55.56665549 1.09174712 -46.83203125 -4.2734375 C-31.4726278 -13.12996555 -13.65150658 -11.35612052 0 0 Z " fill="#0C5DA6" transform="translate(410.89453125,109.9609375)"/>
<path d="M0 0 C7.01051147 4.8780365 13.1762977 12.09964671 14.7421875 20.6796875 C15.6977146 32.55889474 15.26751347 42.38423321 7.4921875 51.9921875 C0.56468538 59.33504306 -7.54497291 62.84165452 -17.55078125 63.63671875 C-27.62824028 63.79667842 -35.84381344 60.60621921 -43.296875 53.82421875 C-48.86398466 47.88991675 -52.57556118 40.86670333 -53.2578125 32.6796875 C-53.32097656 32.03773437 -53.38414062 31.39578125 -53.44921875 30.734375 C-53.95802678 21.5758305 -51.0921845 13.34617095 -45.2578125 6.3046875 C-32.75061596 -6.57585819 -15.4079298 -9.01017348 0 0 Z " fill="#0C5DA6" transform="translate(290.2578125,8.3203125)"/>
<path d="M0 0 C7 0 7 0 8.80444336 1.1015625 C9.22862549 1.60429687 9.65280762 2.10703125 10.08984375 2.625 C10.56357422 3.16640625 11.03730469 3.7078125 11.52539062 4.265625 C11.99138672 4.83796875 12.45738281 5.4103125 12.9375 6 C13.67709961 6.85851562 13.67709961 6.85851562 14.43164062 7.734375 C15.63903447 9.14104744 16.82205671 10.56857524 18 12 C18.33 8.04 18.66 4.08 19 0 C21.64 0 24.28 0 27 0 C27 9.24 27 18.48 27 28 C20 28 20 28 18.19555664 26.8984375 C17.77137451 26.39570313 17.34719238 25.89296875 16.91015625 25.375 C16.43642578 24.83359375 15.96269531 24.2921875 15.47460938 23.734375 C15.00861328 23.16203125 14.54261719 22.5896875 14.0625 22 C13.56943359 21.42765625 13.07636719 20.8553125 12.56835938 20.265625 C11.36096553 18.85895256 10.17794329 17.43142476 9 16 C8.67 19.96 8.34 23.92 8 28 C5.36 28 2.72 28 0 28 C0 18.76 0 9.52 0 0 Z " fill="#0C5DA6" transform="translate(503,206)"/>
<path d="M0 0 C3.88452458 2.01633162 6.33345444 4.18284915 7.84375 8.26953125 C8.376365 12.81551281 8.37662836 16.8276251 6.78125 21.14453125 C3.3394944 24.91935997 0.20344686 26.92598715 -4.8125 27.65625 C-11.12469752 27.90769743 -15.1344576 27.14049622 -20.15625 23.26953125 C-23.62596057 19.46404224 -23.61680913 15.57620544 -23.43359375 10.63671875 C-23.05382907 7.39534699 -22.36533299 5.69239646 -20.15625 3.26953125 C-14.13940016 -1.36845717 -7.31584414 -2.47837473 0 0 Z M-15.15625 11.26953125 C-15.22714184 14.81412337 -14.81031211 16.48968797 -12.53125 19.20703125 C-9.04305246 20.76754068 -6.79192102 20.26107789 -3.15625 19.26953125 C-1.00842329 17.71155243 -1.00842329 17.71155243 -0.15625 15.26953125 C-0.22767652 11.76963153 -0.49603934 9.97689982 -2.90625 7.39453125 C-8.5054917 4.5949104 -11.55015374 6.39069513 -15.15625 11.26953125 Z " fill="#0C5DA6" transform="translate(482.15625,206.73046875)"/>
<path d="M0 0 C3.88452458 2.01633162 6.33345444 4.18284915 7.84375 8.26953125 C8.376365 12.81551281 8.37662836 16.8276251 6.78125 21.14453125 C3.3394944 24.91935997 0.20344686 26.92598715 -4.8125 27.65625 C-11.12469752 27.90769743 -15.1344576 27.14049622 -20.15625 23.26953125 C-23.62596057 19.46404224 -23.61680913 15.57620544 -23.43359375 10.63671875 C-23.05382907 7.39534699 -22.36533299 5.69239646 -20.15625 3.26953125 C-14.13940016 -1.36845717 -7.31584414 -2.47837473 0 0 Z M-15.15625 11.26953125 C-15.22714184 14.81412337 -14.81031211 16.48968797 -12.53125 19.20703125 C-9.04305246 20.76754068 -6.79192102 20.26107789 -3.15625 19.26953125 C-1.00842329 17.71155243 -1.00842329 17.71155243 -0.15625 15.26953125 C-0.22767652 11.76963153 -0.49603934 9.97689982 -2.90625 7.39453125 C-8.5054917 4.5949104 -11.55015374 6.39069513 -15.15625 11.26953125 Z " fill="#0C5DA6" transform="translate(312.15625,206.73046875)"/>
<path d="M0 0 C2.64 0 5.28 0 8 0 C8 3.3 8 6.6 8 10 C11.3 10 14.6 10 18 10 C18 6.7 18 3.4 18 0 C20.64 0 23.28 0 26 0 C26 9.24 26 18.48 26 28 C23.36 28 20.72 28 18 28 C18 24.37 18 20.74 18 17 C14.7 17 11.4 17 8 17 C8 20.63 8 24.26 8 28 C5.36 28 2.72 28 0 28 C0 18.76 0 9.52 0 0 Z " fill="#0D5EA7" transform="translate(204,206)"/>
<path d="M0 0 C2.64 0 5.28 0 8 0 C8.33 6.6 8.66 13.2 9 20 C11.31 20 13.62 20 16 20 C17.11823815 17.76352369 17.19396061 16.35108471 17.31640625 13.8671875 C17.35830078 13.06152344 17.40019531 12.25585938 17.44335938 11.42578125 C17.48267578 10.58402344 17.52199219 9.74226562 17.5625 8.875 C17.60568359 8.02550781 17.64886719 7.17601562 17.69335938 6.30078125 C17.79954236 4.20071777 17.90028497 2.10038052 18 0 C20.64 0 23.28 0 26 0 C26.14611313 3.37453898 26.23433467 6.74825766 26.3125 10.125 C26.35439453 11.07632813 26.39628906 12.02765625 26.43945312 13.0078125 C26.57762908 20.96674751 26.57762908 20.96674751 23.66796875 24.6171875 C19.4601629 28.37525715 15.83868794 28.28160044 10.44140625 28.21875 C6.31359577 27.84889818 4.08944529 26.21610961 1.3894043 23.20214844 C-0.27364442 20.56628489 -0.34952199 19.10720229 -0.29296875 16.015625 C-0.28330078 15.08105469 -0.27363281 14.14648438 -0.26367188 13.18359375 C-0.23853516 12.21550781 -0.21339844 11.24742187 -0.1875 10.25 C-0.17396484 9.26644531 -0.16042969 8.28289062 -0.14648438 7.26953125 C-0.11118726 4.84579585 -0.06188054 2.42317855 0 0 Z " fill="#0C5DA6" transform="translate(365,206)"/>
<path d="M0 0 C7.26 0 14.52 0 22 0 C22 1.98 22 3.96 22 6 C17.38 6 12.76 6 8 6 C8 7.65 8 9.3 8 11 C12.29 11 16.58 11 21 11 C21 12.98 21 14.96 21 17 C16.71 17 12.42 17 8 17 C8 18.65 8 20.3 8 22 C12.95 22 17.9 22 23 22 C23 23.98 23 25.96 23 28 C15.41 28 7.82 28 0 28 C0 18.76 0 9.52 0 0 Z " fill="#0C5DA6" transform="translate(131,206)"/>
<path d="M0 0 C2.3984375 1.02734375 2.3984375 1.02734375 4 2 C3.34 3.98 2.68 5.96 2 8 C1.30132813 7.90460938 0.60265625 7.80921875 -0.1171875 7.7109375 C-1.02726563 7.60007813 -1.93734375 7.48921875 -2.875 7.375 C-3.77992188 7.25898438 -4.68484375 7.14296875 -5.6171875 7.0234375 C-6.40351562 7.01570312 -7.18984375 7.00796875 -8 7 C-8.66 7.66 -9.32 8.32 -10 9 C-9.25234375 9.17015625 -8.5046875 9.3403125 -7.734375 9.515625 C-6.74953125 9.75796875 -5.7646875 10.0003125 -4.75 10.25 C-3.77546875 10.48203125 -2.8009375 10.7140625 -1.796875 10.953125 C1.37601544 12.14074321 2.89715693 13.36411067 5 16 C5.625 19.4375 5.625 19.4375 5 23 C2.87253893 25.85687629 2.16484269 26.72156265 -1 28 C-7.81960011 28.90755135 -14.20712697 28.97225579 -20 25 C-19.01 23.02 -18.02 21.04 -17 19 C-15.86111328 19.2165625 -15.86111328 19.2165625 -14.69921875 19.4375 C-13.70535156 19.623125 -12.71148438 19.80875 -11.6875 20 C-10.70136719 20.185625 -9.71523438 20.37125 -8.69921875 20.5625 C-5.96218195 21.07999796 -5.96218195 21.07999796 -3 21 C-3.87249529 18.66719742 -3.87249529 18.66719742 -6.87109375 18.03515625 C-9.24561364 17.38755992 -11.6206137 16.74172164 -13.99609375 16.09765625 C-17 15 -17 15 -19 12 C-19.5 8.625 -19.5 8.625 -19 5 C-14.18482601 -1.46609079 -7.55337624 -0.92709398 0 0 Z " fill="#0C5DA6" transform="translate(561,206)"/>
<path d="M0 0 C2.3984375 1.02734375 2.3984375 1.02734375 4 2 C3.34 3.98 2.68 5.96 2 8 C1.30132812 7.90460938 0.60265625 7.80921875 -0.1171875 7.7109375 C-1.02726562 7.60007813 -1.93734375 7.48921875 -2.875 7.375 C-3.77992188 7.25898438 -4.68484375 7.14296875 -5.6171875 7.0234375 C-6.40351563 7.01570312 -7.18984375 7.00796875 -8 7 C-8.66 7.66 -9.32 8.32 -10 9 C-9.25234375 9.17015625 -8.5046875 9.3403125 -7.734375 9.515625 C-6.74953125 9.75796875 -5.7646875 10.0003125 -4.75 10.25 C-3.77546875 10.48203125 -2.8009375 10.7140625 -1.796875 10.953125 C1.37601544 12.14074321 2.89715693 13.36411067 5 16 C5.625 19.4375 5.625 19.4375 5 23 C2.87253893 25.85687629 2.16484269 26.72156265 -1 28 C-7.81960011 28.90755135 -14.20712697 28.97225579 -20 25 C-19.01 23.02 -18.02 21.04 -17 19 C-15.86111328 19.2165625 -15.86111328 19.2165625 -14.69921875 19.4375 C-13.70535156 19.623125 -12.71148437 19.80875 -11.6875 20 C-10.70136719 20.185625 -9.71523438 20.37125 -8.69921875 20.5625 C-5.96218195 21.07999796 -5.96218195 21.07999796 -3 21 C-3.87249529 18.66719742 -3.87249529 18.66719742 -6.87109375 18.03515625 C-9.24561364 17.38755992 -11.6206137 16.74172164 -13.99609375 16.09765625 C-17 15 -17 15 -19 12 C-19.5 8.625 -19.5 8.625 -19 5 C-14.18482601 -1.46609079 -7.55337624 -0.92709398 0 0 Z " fill="#0C5DA6" transform="translate(273,206)"/>
<path d="M0 0 C1.64453125 1.09765625 1.64453125 1.09765625 3.95703125 3.09765625 C2.58719622 6.25881401 1.96796745 7.09036545 -1.04296875 9.09765625 C-2.03296875 8.43765625 -3.02296875 7.77765625 -4.04296875 7.09765625 C-7.68105055 6.63322028 -9.40031229 6.66921861 -12.48046875 8.72265625 C-14.338759 11.05913584 -14.338759 11.05913584 -13.98046875 14.22265625 C-13.27602188 17.38940557 -13.27602188 17.38940557 -10.04296875 19.09765625 C-6.08248929 19.43471833 -3.44619749 19.19195086 -0.04296875 17.09765625 C1.60703125 18.74765625 3.25703125 20.39765625 4.95703125 22.09765625 C-1.2223175 27.13870392 -5.0818684 27.88827587 -13.04296875 27.09765625 C-16.76839949 25.86699331 -19.32718982 23.88270411 -21.98046875 20.97265625 C-23.58098879 16.64183732 -23.69299848 12.65516804 -23.04296875 8.09765625 C-21.29611297 4.40238441 -19.75749934 2.62048351 -16.48046875 0.22265625 C-11.21066451 -1.50200696 -5.2191419 -2.30520417 0 0 Z " fill="#0C5DA6" transform="translate(187.04296875,206.90234375)"/>
<path d="M0 0 C8.58 0 17.16 0 26 0 C26 2.31 26 4.62 26 7 C23.03 7 20.06 7 17 7 C17 13.93 17 20.86 17 28 C14.36 28 11.72 28 9 28 C9 21.07 9 14.14 9 7 C6.03 7 3.06 7 0 7 C0 4.69 0 2.38 0 0 Z " fill="#0C5DA6" transform="translate(402,206)"/>
<path d="M0 0 C8.58 0 17.16 0 26 0 C26 2.31 26 4.62 26 7 C23.03 7 20.06 7 17 7 C17 13.93 17 20.86 17 28 C14.36 28 11.72 28 9 28 C9 21.07 9 14.14 9 7 C6.03 7 3.06 7 0 7 C0 4.69 0 2.38 0 0 Z " fill="#0C5DA6" transform="translate(94,206)"/>
<path d="M0 0 C2.64 0 5.28 0 8 0 C8 6.93 8 13.86 8 21 C11.1865625 20.9690625 11.1865625 20.9690625 14.4375 20.9375 C16.62499611 20.91626217 18.81360547 20.92741054 21 21 C22 22 22 22 22 28 C14.74 28 7.48 28 0 28 C0 18.76 0 9.52 0 0 Z " fill="#0C5DA6" transform="translate(333,206)"/>
<path d="M0 0 C2.64 0 5.28 0 8 0 C8 9.24 8 18.48 8 28 C5.36 28 2.72 28 0 28 C0 18.76 0 9.52 0 0 Z " fill="#0D5EA7" transform="translate(439,206)"/>
</svg>
