<?xml version="1.0" encoding="UTF-8"?>
<svg version="1.1" xmlns="http://www.w3.org/2000/svg" width="1047" height="317">
<path d="M0 0 C345.51 0 691.02 0 1047 0 C1047 104.61 1047 209.22 1047 317 C701.49 317 355.98 317 0 317 C0 212.39 0 107.78 0 0 Z " fill="#010101" transform="translate(0,0)"/>
<path d="M0 0 C5.176875 -0.103125 10.35375 -0.20625 15.6875 -0.3125 C17.29197998 -0.35802002 18.89645996 -0.40354004 20.54956055 -0.45043945 C31.98142211 -0.55962292 42.14987899 1.04858853 51 9 C51.8125 11.25 51.8125 11.25 52 13 C52.66 13 53.32 13 54 13 C56.74522883 17.42778844 58.48474397 20.71862571 59 26 C59.515625 25.13375 60.03125 24.2675 60.5625 23.375 C64.05049408 18.22837937 68.12404498 14.19535742 74.25 12.5625 C82.56211561 11.2054199 89.9361326 12.13307639 97.125 16.61328125 C101.61714202 19.93559462 103.75501242 23.60505381 105 29 C105 31.97 105 34.94 105 38 C94.77 38 84.54 38 74 38 C75.33563616 42.94463635 75.33563616 42.94463635 78 44 C79.80948495 44.12176503 81.62396271 44.17545792 83.4375 44.1875 C84.40558594 44.20167969 85.37367188 44.21585938 86.37109375 44.23046875 C89.23266727 44.19149451 89.23266727 44.19149451 92 42 C95 42 95 42 96.60546875 43.42578125 C97.12753906 44.04839844 97.64960937 44.67101562 98.1875 45.3125 C98.71730469 45.92738281 99.24710938 46.54226562 99.79296875 47.17578125 C101 49 101 49 101 52 C92.7274833 57.56804009 84.62511809 58.20313976 75 57 C67.57236171 54.81969606 62.97459422 49.43613269 59 43 C57.5625 39.4375 57.5625 39.4375 57 37 C56.63648438 37.73605469 56.27296875 38.47210938 55.8984375 39.23046875 C52.05870162 46.68349455 49.1271649 51.75388628 40.9296875 54.61328125 C33.08742514 56.88393629 24.95852104 56.31466073 16.875 56.1875 C8.521875 56.0946875 8.521875 56.0946875 0 56 C0 37.52 0 19.04 0 0 Z " fill="#F8F8F8" transform="translate(429,93)"/>
<path d="M0 0 C5.40375 -0.0825 10.8075 -0.165 16.375 -0.25 C18.05899902 -0.28641602 19.74299805 -0.32283203 21.47802734 -0.36035156 C33.33740127 -0.51026374 43.15899638 1.40401265 52 10 C57.31998883 17.10873869 57.63065951 24.40200869 57 33 C56.23355134 36.43119459 55.2242925 39.70607019 54 43 C53.34 43 52.68 43 52 43 C51.773125 43.5775 51.54625 44.155 51.3125 44.75 C47.53238669 51.23019425 40.08316173 53.36953814 33.2980957 55.54589844 C30.11813156 56.17425638 27.06850995 56.11093652 23.828125 56.09765625 C22.5793457 56.09515869 21.33056641 56.09266113 20.04394531 56.09008789 C18.46194336 56.08098389 16.87994141 56.07187988 15.25 56.0625 C7.70125 56.0315625 7.70125 56.0315625 0 56 C0 37.52 0 19.04 0 0 Z " fill="#F9F9F9" transform="translate(681,169)"/>
<path d="M0 0 C3.87711782 3.53417865 5.8991793 7.62122343 6.40307617 12.83935547 C6.38736572 14.10666504 6.37165527 15.37397461 6.35546875 16.6796875 C6.35122391 17.35927521 6.34697906 18.03886292 6.34260559 18.73904419 C6.32594266 20.88894924 6.28831716 23.03788299 6.25 25.1875 C6.234937 26.6536322 6.22125143 28.11977924 6.20898438 29.5859375 C6.17864342 33.16212472 6.1199073 36.73623779 6.0625 40.3125 C1.1125 40.3125 -3.8375 40.3125 -8.9375 40.3125 C-8.96328125 38.39824219 -8.9890625 36.48398438 -9.015625 34.51171875 C-9.07189308 32.00778929 -9.12924069 29.50388392 -9.1875 27 C-9.20167969 25.73736328 -9.21585938 24.47472656 -9.23046875 23.17382812 C-9.26269531 21.96533203 -9.29492188 20.75683594 -9.328125 19.51171875 C-9.34907227 18.39627686 -9.37001953 17.28083496 -9.39160156 16.1315918 C-9.68255777 13.21649943 -9.68255777 13.21649943 -11.81542969 11.44067383 C-14.41264591 10.05989424 -16.03125348 10.01442343 -18.9375 10.3125 C-19.9275 10.6425 -20.9175 10.9725 -21.9375 11.3125 C-22.2675 21.2125 -22.5975 31.1125 -22.9375 41.3125 C-27.8875 41.3125 -32.8375 41.3125 -37.9375 41.3125 C-39.76032118 39.48967882 -39.15437112 36.61494349 -39.21875 34.16015625 C-39.25613281 32.90912109 -39.29351562 31.65808594 -39.33203125 30.36914062 C-39.38423828 28.39204102 -39.38423828 28.39204102 -39.4375 26.375 C-39.50616035 23.78243586 -39.57886736 21.1899747 -39.65625 18.59765625 C-39.68654297 17.44144775 -39.71683594 16.28523926 -39.74804688 15.09399414 C-39.75502449 12.35628484 -39.75502449 12.35628484 -40.9375 10.3125 C-45.63899229 9.87139641 -45.63899229 9.87139641 -49.8125 11.625 C-52.01257016 14.92510525 -52.11127052 18.00430411 -52.25390625 21.85546875 C-52.29580078 22.92861328 -52.33769531 24.00175781 -52.38085938 25.10742188 C-52.43983398 26.78674805 -52.43983398 26.78674805 -52.5 28.5 C-52.54318359 29.63115234 -52.58636719 30.76230469 -52.63085938 31.92773438 C-52.7369901 34.72251025 -52.83775397 37.51748898 -52.9375 40.3125 C-57.8875 40.3125 -62.8375 40.3125 -67.9375 40.3125 C-67.9375 26.1225 -67.9375 11.9325 -67.9375 -2.6875 C-62.9875 -2.6875 -58.0375 -2.6875 -52.9375 -2.6875 C-52.9375 -1.6975 -52.9375 -0.7075 -52.9375 0.3125 C-52.24398437 -0.17347656 -51.55046875 -0.65945312 -50.8359375 -1.16015625 C-45.80343493 -3.8120545 -40.48519722 -3.34419412 -34.9375 -2.6875 C-32.32660152 -1.60526229 -30.31270326 -0.25412343 -27.9375 1.3125 C-25.14045878 1.23023408 -23.89597493 0.28694611 -21.5 -1.1875 C-14.93462824 -5.03064445 -5.99985614 -4.86612536 0 0 Z " fill="#F6F6F6" transform="translate(223.9375,108.6875)"/>
<path d="M0 0 C4.62 0 9.24 0 14 0 C14 1.32 14 2.64 14 4 C15.36125 3.01 15.36125 3.01 16.75 2 C22.30911902 -1.21724066 29.22505063 -0.8298649 35.36328125 0.51953125 C35.90339844 0.67808594 36.44351563 0.83664063 37 1 C37 1.66 37 2.32 37 3 C39.75706416 3.86382428 39.75706416 3.86382428 43 4 C43.73992187 3.35417969 44.47984375 2.70835938 45.2421875 2.04296875 C48.82284677 -0.6095593 51.02468858 -0.50415878 55.4375 -0.4375 C56.71496094 -0.43621094 57.99242187 -0.43492188 59.30859375 -0.43359375 C64.422024 0.16703139 67.7268801 1.69247145 71.3125 5.375 C74.30517562 10.03027319 74.12075763 14.62195741 74.09765625 20.05078125 C74.0962413 20.70958786 74.09482635 21.36839447 74.09336853 22.04716492 C74.087805 24.13565762 74.07525947 26.22404011 74.0625 28.3125 C74.05748028 29.73502449 74.0529182 31.15755066 74.04882812 32.58007812 C74.03870164 36.05346126 74.01911959 39.52660836 74 43 C69.05 43 64.1 43 59 43 C58.96261719 41.07414062 58.92523438 39.14828125 58.88671875 37.1640625 C58.82107962 34.65102151 58.75463159 32.13800156 58.6875 29.625 C58.65366211 27.71847656 58.65366211 27.71847656 58.61914062 25.7734375 C58.58369141 24.56171875 58.54824219 23.35 58.51171875 22.1015625 C58.48553467 20.98088379 58.45935059 19.86020508 58.43237305 18.70556641 C58.21834839 17.36631104 58.21834839 17.36631104 58 16 C54.91111478 13.94074319 54.29064073 13.7609626 50.8125 13.875 C49.554375 13.91625 48.29625 13.9575 47 14 C45.63383421 16.73233158 45.80178757 19.01190444 45.71875 22.06640625 C45.68136719 23.27361328 45.64398438 24.48082031 45.60546875 25.72460938 C45.53504898 28.28710643 45.46473681 30.84960644 45.39453125 33.41210938 C45.35714844 34.61802734 45.31976563 35.82394531 45.28125 37.06640625 C45.25095703 38.17959229 45.22066406 39.29277832 45.18945312 40.43969727 C45 43 45 43 44 44 C39.05 44 34.1 44 29 44 C28.505 28.655 28.505 28.655 28 13 C25.03 13 22.06 13 19 13 C15.45042562 16.54957438 15.60164004 17.37013434 15.48828125 22.19921875 C15.45283203 23.40771484 15.41738281 24.61621094 15.38085938 25.86132812 C15.34702148 27.7552832 15.34702148 27.7552832 15.3125 29.6875 C15.27833984 30.96173828 15.24417969 32.23597656 15.20898438 33.54882812 C15.12639805 36.69890643 15.06152609 39.84943999 15 43 C10.05 43 5.1 43 0 43 C0 28.81 0 14.62 0 0 Z " fill="#F6F6F6" transform="translate(235,106)"/>
<path d="M0 0 C3.28642465 -0.12865812 3.28642465 -0.12865812 6 -1 C6 -1.66 6 -2.32 6 -3 C9.71290911 -4.17544359 13.25085256 -4.13308799 17.125 -4.125 C18.36507812 -4.12757812 19.60515625 -4.13015625 20.8828125 -4.1328125 C24 -4 24 -4 26 -3 C26 -2.34 26 -1.68 26 -1 C26.598125 -0.773125 27.19625 -0.54625 27.8125 -0.3125 C30.71307894 1.42784737 31.54289442 2.94185493 33 6 C33.25139766 8.65508364 33.35182051 11.0615348 33.29296875 13.70703125 C33.28872391 14.43242599 33.28447906 15.15782074 33.28010559 15.90519714 C33.26339543 18.20801891 33.2257596 20.50994553 33.1875 22.8125 C33.17244316 24.3795446 33.1587565 25.946603 33.14648438 27.51367188 C33.11607628 31.34306503 33.05734635 35.17053795 33 39 C28.05 39 23.1 39 18 39 C17.96261719 37.00195312 17.92523437 35.00390625 17.88671875 32.9453125 C17.83805095 31.01250569 17.78928034 29.0796999 17.73754883 27.14697266 C17.68790041 25.14117664 17.65345836 23.13502313 17.61914062 21.12890625 C17.58369141 19.87207031 17.54824219 18.61523438 17.51171875 17.3203125 C17.48553467 16.15773926 17.45935059 14.99516602 17.43237305 13.79736328 C17.21834839 12.41266846 17.21834839 12.41266846 17 11 C13.52957297 8.68638198 12.08165827 8.48979272 8 9 C4.84092418 12.13624811 4.59480924 14.73178309 4.48828125 19.078125 C4.45283203 20.23828125 4.41738281 21.3984375 4.38085938 22.59375 C4.35830078 23.8003125 4.33574219 25.006875 4.3125 26.25 C4.27833984 27.47203125 4.24417969 28.6940625 4.20898438 29.953125 C4.1265347 32.96842746 4.06159029 35.98419936 4 39 C-0.95 39 -5.9 39 -11 39 C-11.04898438 37.07414062 -11.09796875 35.14828125 -11.1484375 33.1640625 C-11.2234535 30.65102655 -11.29900182 28.13800644 -11.375 25.625 C-11.4059375 24.35398438 -11.436875 23.08296875 -11.46875 21.7734375 C-11.50742187 20.56171875 -11.54609375 19.35 -11.5859375 18.1015625 C-11.6173584 16.98088379 -11.6487793 15.86020508 -11.68115234 14.70556641 C-11.73411203 11.85289588 -11.73411203 11.85289588 -14 10 C-15.91006306 9.6823754 -15.91006306 9.6823754 -18 9.75 C-18.70125 9.74484375 -19.4025 9.7396875 -20.125 9.734375 C-22.2435669 9.84294485 -22.2435669 9.84294485 -24 12 C-24.37239227 14.81402683 -24.37239227 14.81402683 -24.4140625 18.1015625 C-24.47207031 19.91914063 -24.47207031 19.91914063 -24.53125 21.7734375 C-24.5621875 23.04445312 -24.593125 24.31546875 -24.625 25.625 C-24.68300781 27.543125 -24.68300781 27.543125 -24.7421875 29.5 C-24.83670756 32.66642211 -24.919452 35.83319166 -25 39 C-29.95 39 -34.9 39 -40 39 C-40 24.81 -40 10.62 -40 -4 C-35.38 -4 -30.76 -4 -26 -4 C-25.67 -2.68 -25.34 -1.36 -25 0 C-24.195625 -0.9590625 -24.195625 -0.9590625 -23.375 -1.9375 C-16.24247393 -8.1315358 -6.81722697 -4.54481798 0 0 Z " fill="#F8F8F8" transform="translate(788,110)"/>
<path d="M0 0 C4.95 0 9.9 0 15 0 C15.33 0.99 15.66 1.98 16 3 C16.52335938 2.51660156 17.04671875 2.03320312 17.5859375 1.53515625 C22.46093824 -1.56496558 28.46362891 -0.74333661 34 0 C37.78223378 1.47007577 41.04697262 3.19494567 44 6 C44.76171875 8.203125 44.76171875 8.203125 45 10 C45.66 10 46.32 10 47 10 C49.74344994 16.51569361 50.08472667 23.45371755 47.875 30.1875 C45.40598279 35.86049768 41.92985748 40.49695088 36.125 42.9375 C29.05614389 45.12290971 22.62277256 44.31138628 16 41 C16 46.94 16 52.88 16 59 C10.72 59 5.44 59 0 59 C0 39.53 0 20.06 0 0 Z " fill="#F4F4F4" transform="translate(696,106)"/>
<path d="M0 0 C5.28 0 10.56 0 16 0 C16.03738281 2.61292969 16.07476562 5.22585937 16.11328125 7.91796875 C16.15953039 10.45654536 16.21075164 12.9949765 16.26245117 15.53344727 C16.29564654 17.29377355 16.32369524 19.05420488 16.34643555 20.81469727 C16.3800812 23.34957525 16.4324006 25.88349523 16.48828125 28.41796875 C16.49467117 29.20149216 16.5010611 29.98501556 16.50764465 30.7922821 C16.62926824 35.34154881 17.1597268 38.38752072 20 42 C23.77438614 43.88719307 28.4238055 43.49774563 32.375 42.25 C34.50955336 40.60803588 35.03916114 39.54904001 36 37 C36.2365356 34.1434614 36.37218519 31.37489254 36.4140625 28.515625 C36.43342865 27.70003113 36.4527948 26.88443726 36.4727478 26.04412842 C36.53239575 23.44619108 36.57886942 20.84820907 36.625 18.25 C36.66319342 16.48565806 36.70224595 14.72133449 36.7421875 12.95703125 C36.83969824 8.63811793 36.91938263 4.31939381 37 0 C42.28 0 47.56 0 53 0 C53.04963288 5.56842771 53.08582963 11.13672511 53.10986328 16.70532227 C53.11988815 18.59759771 53.13351155 20.48985778 53.15087891 22.38208008 C53.17528222 25.1102275 53.18651845 27.83816915 53.1953125 30.56640625 C53.20563507 31.40522842 53.21595764 32.2440506 53.22659302 33.10829163 C53.22753868 38.11826803 52.75891631 42.2866119 51 47 C48.9375 48.3125 48.9375 48.3125 47 49 C46.505 49.99 46.505 49.99 46 51 C45.34 51 44.68 51 44 51 C44 51.66 44 52.32 44 53 C35.26053744 57.70586445 25.22376226 58.51539492 15.5234375 56.48046875 C14.76933594 56.24263672 14.76933594 56.24263672 14 56 C14 55.34 14 54.68 14 54 C13.401875 53.855625 12.80375 53.71125 12.1875 53.5625 C7.21044366 52.28268551 7.21044366 52.28268551 5.4296875 49.890625 C4.66011719 48.58351563 4.66011719 48.58351563 3.875 47.25 C3.35679688 46.38890625 2.83859375 45.5278125 2.3046875 44.640625 C-0.28480385 39.39961854 -0.13549894 34.16278451 -0.09765625 28.41796875 C-0.09553383 27.19670036 -0.09553383 27.19670036 -0.09336853 25.95075989 C-0.08779317 23.36296844 -0.07524524 20.77526508 -0.0625 18.1875 C-0.05748181 16.42773563 -0.05291946 14.66796989 -0.04882812 12.90820312 C-0.03868481 8.60540791 -0.0191047 4.302802 0 0 Z " fill="#F3F3F3" transform="translate(98,93)"/>
<path d="M0 0 C5.28 0 10.56 0 16 0 C16.06058594 2.45695313 16.12117187 4.91390625 16.18359375 7.4453125 C16.24549197 9.83824407 16.30883443 12.23113337 16.37231445 14.62402344 C16.41549049 16.28056031 16.45717697 17.93713672 16.49731445 19.59375 C16.5554393 21.9818918 16.61900948 24.3698377 16.68359375 26.7578125 C16.70030624 27.49242706 16.71701874 28.22704163 16.73423767 28.98391724 C16.8505647 33.06813842 17.1025856 37.00770021 18 41 C20.83186507 43.49204126 24.35525689 43.41632725 28.03125 43.3203125 C31.21631491 42.8021075 32.86209418 41.3322609 35 39 C36.43082185 35.15312506 36.2254431 31.00768632 36.31640625 26.953125 C36.33718735 26.18192322 36.35796844 25.41072144 36.37937927 24.6161499 C36.44458572 22.16085428 36.50362484 19.70545479 36.5625 17.25 C36.60571274 15.58202065 36.6493279 13.91405168 36.69335938 12.24609375 C36.80099226 8.16416727 36.90027992 4.08215812 37 0 C42.28 0 47.56 0 53 0 C53.06910207 5.14170605 53.12876436 10.28178252 53.16479492 15.42358398 C53.17982429 17.1703845 53.20025354 18.91714765 53.22631836 20.66381836 C53.2629608 23.18352515 53.27978492 25.70273039 53.29296875 28.22265625 C53.30845261 28.99585709 53.32393646 29.76905792 53.33988953 30.56568909 C53.34230768 38.46535771 50.41057686 45.20393675 45 51 C39.06619631 56.44046204 32.34437335 56.65806287 24.67407227 56.51928711 C17.60885035 56.19007266 11.3596823 55.31733336 6.140625 50.1640625 C0.85244981 43.5916162 -0.30145376 37.32994365 -0.1953125 29.1015625 C-0.1924826 28.26660248 -0.18965271 27.43164246 -0.18673706 26.57138062 C-0.17560301 23.92243709 -0.15051127 21.27384016 -0.125 18.625 C-0.11496143 16.82161949 -0.10583712 15.01823364 -0.09765625 13.21484375 C-0.0756859 8.80976367 -0.04120321 4.40494047 0 0 Z " fill="#F6F6F6" transform="translate(622,169)"/>
<path d="M0 0 C9.9 0 19.8 0 30 0 C33.3125 8.625 33.3125 8.625 34.3371582 11.30712891 C36.02067517 15.6622182 37.82313103 19.86059993 40 24 C42.68911496 20.787133 44.06249195 17.60839534 45.5 13.6875 C47.22304226 9.06495762 49.00650612 4.51159141 51 0 C55.62 0 60.24 0 65 0 C64.16626324 4.16868379 63.11676982 7.52184696 61.5625 11.4375 C60.30208692 14.62427575 59.07075957 17.77951318 58.0234375 21.04296875 C56.94440942 24.16061858 55.58658184 26.95093459 54.0625 29.875 C51.69747303 34.51253455 49.70172899 39.08389402 48 44 C42.72 44 37.44 44 32 44 C29.86709633 39.02322476 28.61829553 36.07002337 28 31 C27.34 31 26.68 31 26 31 C25.76812988 30.39003174 25.53625977 29.78006348 25.29736328 29.15161133 C24.2403515 26.37173901 23.18268194 23.59211741 22.125 20.8125 C21.76019531 19.85279297 21.39539063 18.89308594 21.01953125 17.90429688 C20.66503906 16.97294922 20.31054688 16.04160156 19.9453125 15.08203125 C19.62062988 14.22843018 19.29594727 13.3748291 18.96142578 12.49536133 C17.99560349 9.98858895 16.99770222 7.49425555 16 5 C15.67 17.87 15.34 30.74 15 44 C10.05 44 5.1 44 0 44 C0 29.48 0 14.96 0 0 Z " fill="#F1F1F1" transform="translate(467,181)"/>
<path d="M0 0 C2.57682927 1.87275138 4.03007891 3.42815857 6 6 C6 7.32 6 8.64 6 10 C6.66 10 7.32 10 8 10 C8 14.95 8 19.9 8 25 C7.34 25 6.68 25 6 25 C5.9071875 26.0828125 5.9071875 26.0828125 5.8125 27.1875 C4.16007035 32.9074488 -1.05247722 36.11394505 -6 39 C-13.08171755 40.80283325 -21.29381788 41.11915447 -28 38 C-30.0360882 36.72245446 -32.04109119 35.39300182 -34 34 C-34.99 33.34 -35.98 32.68 -37 32 C-40.64477522 25.17542089 -41.3386062 16.88553449 -39.30859375 9.4765625 C-37.25490424 4.30367092 -34.79214551 1.0172768 -30 -2 C-18.86651887 -6.61404336 -10.53132213 -5.64915459 0 0 Z " fill="#F5F5F5" transform="translate(686,110)"/>
<path d="M0 0 C4.95 0 9.9 0 15 0 C15 6.6 15 13.2 15 20 C15.66 20 16.32 20 17 20 C17 19.34 17 18.68 17 18 C20.72773328 15.61918307 24.08828486 15.70043126 28.4375 15.6875 C29.73558594 15.67074219 31.03367187 15.65398437 32.37109375 15.63671875 C37.40656007 16.14080741 39.86766328 17.77330189 43.25 21.4375 C46.30988071 25.91803961 46.1196468 29.80617993 46.09765625 35.171875 C46.0962413 35.8542926 46.09482635 36.53671021 46.09336853 37.23980713 C46.08779084 39.40991684 46.07524254 41.5799217 46.0625 43.75 C46.05748211 45.22525892 46.05291971 46.70051947 46.04882812 48.17578125 C46.03868148 51.78392663 46.01910199 55.39184655 46 59 C41.05 59 36.1 59 31 59 C30.96261719 57.08574219 30.92523438 55.17148438 30.88671875 53.19921875 C30.82107274 50.69529245 30.75462494 48.19138709 30.6875 45.6875 C30.66494141 44.42486328 30.64238281 43.16222656 30.61914062 41.86132812 C30.5659668 40.04858398 30.5659668 40.04858398 30.51171875 38.19921875 C30.48553467 37.08377686 30.45935059 35.96833496 30.43237305 34.8190918 C30.2175722 32.01270691 30.2175722 32.01270691 28.68286133 30.14379883 C25.76078077 28.15773363 23.39957622 28.5228665 20 29 C16.43134039 32.5267833 15.49242291 34.99438335 15.390625 39.95703125 C15.35839844 41.06884766 15.32617188 42.18066406 15.29296875 43.32617188 C15.27169922 45.0519043 15.27169922 45.0519043 15.25 46.8125 C15.22035156 47.98232422 15.19070313 49.15214844 15.16015625 50.35742188 C15.08961363 53.23791219 15.04252458 56.11895984 15 59 C10.05 59 5.1 59 0 59 C0 39.53 0 20.06 0 0 Z " fill="#F9F9F9" transform="translate(359,90)"/>
<path d="M0 0 C3.3478167 3.3478167 4.93692889 6.39335854 6 11 C6 13.97 6 16.94 6 20 C-4.23 20 -14.46 20 -25 20 C-23.66436384 24.94463635 -23.66436384 24.94463635 -21 26 C-19.19051505 26.12176503 -17.37603729 26.17545792 -15.5625 26.1875 C-14.59441406 26.20167969 -13.62632812 26.21585938 -12.62890625 26.23046875 C-9.76733273 26.19149451 -9.76733273 26.19149451 -7 24 C-4 24 -4 24 -2.39453125 25.42578125 C-1.87246094 26.04839844 -1.35039063 26.67101562 -0.8125 27.3125 C-0.28269531 27.92738281 0.24710938 28.54226562 0.79296875 29.17578125 C2 31 2 31 2 34 C-6.2725167 39.56804009 -14.37488191 40.20313976 -24 39 C-31.22288887 36.87979807 -36.42887691 31.5190308 -40 25 C-41.75843365 19.30744361 -42.37826021 13.93203573 -42.625 8 C-42.66367187 7.22527344 -42.70234375 6.45054688 -42.7421875 5.65234375 C-42.83521357 3.76856585 -42.91863175 1.88431744 -43 0 C-40.4345406 2.5654594 -40.45953913 4.47686668 -40 8 C-39.484375 7.13375 -38.96875 6.2675 -38.4375 5.375 C-34.94950592 0.22837937 -30.87595502 -3.80464258 -24.75 -5.4375 C-15.55255101 -6.93912433 -7.54447675 -5.57976926 0 0 Z " fill="#F3F3F3" transform="translate(528,111)"/>
<path d="M0 0 C3.80351099 2.74558078 6.26827201 5.77356604 7.76953125 10.27734375 C7.85350282 12.63414588 7.87681312 14.99328456 7.8671875 17.3515625 C7.86577255 18.03539505 7.8643576 18.7192276 7.86289978 19.42378235 C7.85731001 21.60418097 7.84475947 23.78447626 7.83203125 25.96484375 C7.82701492 27.44465997 7.82245225 28.92447781 7.81835938 30.40429688 C7.80819555 34.02871751 7.78861835 37.65291519 7.76953125 41.27734375 C3.14953125 41.27734375 -1.47046875 41.27734375 -6.23046875 41.27734375 C-6.56046875 39.95734375 -6.89046875 38.63734375 -7.23046875 37.27734375 C-8.25140625 38.25380859 -8.25140625 38.25380859 -9.29296875 39.25 C-12.89119212 41.73334831 -14.89964569 41.78484628 -19.23046875 41.71484375 C-20.42671875 41.71355469 -21.62296875 41.71226562 -22.85546875 41.7109375 C-27.7929538 41.07660782 -30.29186175 39.34278954 -33.54296875 35.65234375 C-35.69685782 31.34456561 -36.06952231 28.00576016 -35.23046875 23.27734375 C-33.09950464 19.19299588 -30.30170874 17.25335657 -25.93359375 15.76953125 C-19.79095889 14.65107461 -13.44618172 15.07367354 -7.23046875 15.27734375 C-7.99950493 13.29004616 -7.99950493 13.29004616 -9.23046875 11.27734375 C-16.16564148 8.45190301 -22.06132385 9.72402902 -29.23046875 11.27734375 C-30.949961 8.31981709 -32.17794431 6.03019408 -32.41796875 2.58984375 C-31.23046875 0.27734375 -31.23046875 0.27734375 -28.16796875 -1.53515625 C-19.56293637 -4.23781985 -8.02225293 -4.31023532 0 0 Z " fill="#F5F5F5" transform="translate(423.23046875,183.72265625)"/>
<path d="M0 0 C4.35614856 3.32184639 5.91225846 6.35215883 7.25390625 11.71875 C7.25390625 15.01875 7.25390625 18.31875 7.25390625 21.71875 C-2.64609375 21.71875 -12.54609375 21.71875 -22.74609375 21.71875 C-21.18407145 25.56991711 -21.18407145 25.56991711 -19.12109375 26.96875 C-15.64254613 28.06723872 -12.35864735 28.22954139 -8.74609375 27.71875 C-6.28651635 26.38044042 -6.28651635 26.38044042 -4.74609375 24.71875 C-0.95010826 26.21003001 0.97111024 28.37608441 3.25390625 31.71875 C3.25390625 32.70875 3.25390625 33.69875 3.25390625 34.71875 C-4.70710649 40.73373741 -13.16182453 40.5271478 -22.74609375 39.71875 C-29.14405547 38.32420164 -32.61955105 34.13405554 -36.3359375 28.953125 C-39.49785024 23.94311369 -40.25242555 19.59219882 -39.74609375 13.71875 C-38.33477435 7.71767757 -35.51442088 2.68012946 -30.74609375 -1.28125 C-21.035323 -6.81344667 -9.2300695 -5.69657855 0 0 Z " fill="#F5F5F5" transform="translate(568.74609375,185.28125)"/>
<path d="M0 0 C3.67937073 4.10744156 3.6502545 9.48272406 3.60546875 14.72265625 C3.60263885 15.38004791 3.59980896 16.03743958 3.59689331 16.7147522 C3.58579072 18.79310108 3.56070611 20.87100241 3.53515625 22.94921875 C3.52511356 24.36718123 3.51598998 25.78515054 3.5078125 27.203125 C3.48759415 30.66046304 3.44842975 34.1168461 3.41015625 37.57421875 C-1.20984375 37.57421875 -5.82984375 37.57421875 -10.58984375 37.57421875 C-10.91984375 36.58421875 -11.24984375 35.59421875 -11.58984375 34.57421875 C-13.07484375 35.06921875 -13.07484375 35.06921875 -14.58984375 35.57421875 C-14.58984375 36.23421875 -14.58984375 36.89421875 -14.58984375 37.57421875 C-20.77331253 39.63537501 -27.61659399 39.10136288 -33.58984375 36.57421875 C-36.10798611 34.23873957 -38.04757949 31.65874728 -39.58984375 28.57421875 C-39.7208546 23.81103866 -39.2703233 20.4626226 -36.33984375 16.63671875 C-30.87455379 12.53775128 -26.37805 12.3053643 -19.77734375 12.44921875 C-18.59495117 12.46275391 -18.59495117 12.46275391 -17.38867188 12.4765625 C-15.45559709 12.49999371 -13.52267995 12.53586037 -11.58984375 12.57421875 C-11.58984375 11.25421875 -11.58984375 9.93421875 -11.58984375 8.57421875 C-16.82529744 6.3698172 -21.9776864 5.91737417 -27.58984375 6.57421875 C-28.57984375 7.23421875 -29.56984375 7.89421875 -30.58984375 8.57421875 C-31.57984375 8.57421875 -32.56984375 8.57421875 -33.58984375 8.57421875 C-36.58984375 2.07421875 -36.58984375 2.07421875 -36.58984375 -2.42578125 C-25.49472959 -9.82252402 -10.43794224 -7.03265612 0 0 Z " fill="#F4F4F4" transform="translate(350.58984375,111.42578125)"/>
<path d="M0 0 C5.29049073 3.56258734 7.27262975 6.54324839 8.75390625 12.74609375 C8.75390625 15.71609375 8.75390625 18.68609375 8.75390625 21.74609375 C-1.47609375 21.74609375 -11.70609375 21.74609375 -22.24609375 21.74609375 C-22.24609375 22.73609375 -22.24609375 23.72609375 -22.24609375 24.74609375 C-21.58609375 24.74609375 -20.92609375 24.74609375 -20.24609375 24.74609375 C-19.58609375 25.73609375 -18.92609375 26.72609375 -18.24609375 27.74609375 C-15.45526992 28.18781363 -15.45526992 28.18781363 -12.30859375 28.05859375 C-11.24769531 28.05472656 -10.18679688 28.05085938 -9.09375 28.046875 C-6.04558844 27.94770306 -6.04558844 27.94770306 -3.24609375 25.74609375 C-2.25609375 25.74609375 -1.26609375 25.74609375 -0.24609375 25.74609375 C4.62057292 30.61276042 4.62057292 30.61276042 5.00390625 33.87109375 C2.6989819 37.32848027 -1.18787696 39.04953567 -5.03515625 40.3515625 C-8.14168104 40.90590703 -11.15529611 40.87772529 -14.30859375 40.87109375 C-16.15130859 40.87496094 -16.15130859 40.87496094 -18.03125 40.87890625 C-21.24609375 40.74609375 -21.24609375 40.74609375 -24.24609375 39.74609375 C-24.24609375 39.08609375 -24.24609375 38.42609375 -24.24609375 37.74609375 C-24.99375 37.66101563 -25.74140625 37.5759375 -26.51171875 37.48828125 C-29.80251499 36.59506513 -30.84431656 35.47036442 -32.99609375 32.87109375 C-33.5890625 32.17242187 -34.18203125 31.47375 -34.79296875 30.75390625 C-38.68884358 25.3708964 -37.67270537 18.07416618 -37.24609375 11.74609375 C-36.51650501 9.05679571 -35.63564642 7.17781092 -34.24609375 4.74609375 C-33.58609375 4.74609375 -32.92609375 4.74609375 -32.24609375 4.74609375 C-32.03984375 4.14796875 -31.83359375 3.54984375 -31.62109375 2.93359375 C-25.04228759 -7.53268878 -9.10910441 -5.08525655 0 0 Z " fill="#F6F6F6" transform="translate(616.24609375,109.25390625)"/>
<path d="M0 0 C4.95 0 9.9 0 15 0 C15.33 0.99 15.66 1.98 16 3 C16.7425 2.505 17.485 2.01 18.25 1.5 C23.20520268 -0.94237478 28.63485785 -0.77045122 34 0 C37.03044099 1.25109949 39.6382671 2.70772983 42 5 C42 5.66 42 6.32 42 7 C42.66 7 43.32 7 44 7 C46.46105545 10.69158318 46.25575793 13.46623554 46.1953125 17.73046875 C46.1924826 18.48088943 46.18965271 19.23131012 46.18673706 20.00447083 C46.17555062 22.39897675 46.15044928 24.79310731 46.125 27.1875 C46.11496819 28.81184355 46.10584269 30.43619297 46.09765625 32.06054688 C46.0773186 36.0406252 46.03816832 40.01989291 46 44 C41.05 44 36.1 44 31 44 C30.95101563 42.00195312 30.90203125 40.00390625 30.8515625 37.9453125 C30.79594235 36.01251243 30.74025454 34.07971363 30.68261719 32.14697266 C30.62545964 30.14113029 30.57831404 28.13501082 30.53125 26.12890625 C30.49257813 24.87207031 30.45390625 23.61523438 30.4140625 22.3203125 C30.3826416 21.15773926 30.3512207 19.99516602 30.31884766 18.79736328 C30.27842131 15.86343518 30.27842131 15.86343518 28 14 C25.78927023 13.75746187 25.78927023 13.75746187 23.375 13.875 C22.14910156 13.90207031 22.14910156 13.90207031 20.8984375 13.9296875 C19.95871094 13.96449219 19.95871094 13.96449219 19 14 C15.21534007 19.78352858 15.45172516 25.62059064 15.3125 32.375 C15.27833984 33.49261719 15.24417969 34.61023438 15.20898438 35.76171875 C15.12684659 38.50746764 15.06173815 41.25371669 15 44 C10.05 44 5.1 44 0 44 C0 29.48 0 14.96 0 0 Z " fill="#F8F8F8" transform="translate(268,181)"/>
<path d="M0 0 C5.02382251 3.42094856 8.74325223 6.95102455 10.51953125 12.92578125 C10.93117892 16.46595118 10.83203125 20.04925867 10.83203125 23.61328125 C0.60203125 23.61328125 -9.62796875 23.61328125 -20.16796875 23.61328125 C-17.84545449 28.4982365 -17.84545449 28.4982365 -15.16796875 29.61328125 C-13.13049245 29.84186239 -11.08756572 30.02352403 -9.04296875 30.17578125 C-7.39941406 30.30146484 -7.39941406 30.30146484 -5.72265625 30.4296875 C-4.45808594 30.52056641 -4.45808594 30.52056641 -3.16796875 30.61328125 C-3.16796875 29.95328125 -3.16796875 29.29328125 -3.16796875 28.61328125 C-1.51796875 28.61328125 0.13203125 28.61328125 1.83203125 28.61328125 C1.83203125 29.27328125 1.83203125 29.93328125 1.83203125 30.61328125 C2.76015625 31.04640625 2.76015625 31.04640625 3.70703125 31.48828125 C5.83203125 32.61328125 5.83203125 32.61328125 7.83203125 34.61328125 C7.83203125 35.60328125 7.83203125 36.59328125 7.83203125 37.61328125 C6.56247825 38.26162779 5.29133419 38.9068594 4.01953125 39.55078125 C2.95798828 40.09025391 2.95798828 40.09025391 1.875 40.640625 C-5.19043156 44.00447291 -14.56464963 43.4759443 -22.06640625 41.56640625 C-28.38159942 38.7022666 -32.58196786 32.85828042 -35.16796875 26.61328125 C-36.19191569 19.84253132 -36.28095798 13.40431145 -32.54296875 7.48828125 C-25.04643816 -2.02382596 -11.12323412 -4.86898657 0 0 Z " fill="#F6F6F6" transform="translate(859.16796875,107.38671875)"/>
<path d="M0 0 C4.75274387 5.70618186 5.13196003 12.28839296 5.09765625 19.4921875 C5.09443359 20.69101563 5.09121094 21.88984375 5.08789062 23.125 C5.07532227 24.98125 5.07532227 24.98125 5.0625 26.875 C5.05798828 28.13570312 5.05347656 29.39640625 5.04882812 30.6953125 C5.0370797 33.79689545 5.01914535 36.89845388 5 40 C0.05 40 -4.9 40 -10 40 C-10.05607422 37.25429687 -10.05607422 37.25429687 -10.11328125 34.453125 C-10.1789353 32.05206265 -10.24538283 29.6510219 -10.3125 27.25 C-10.33505859 26.0434375 -10.35761719 24.836875 -10.38085938 23.59375 C-10.41630859 22.43359375 -10.45175781 21.2734375 -10.48828125 20.078125 C-10.51446533 19.00981445 -10.54064941 17.94150391 -10.56762695 16.84082031 C-11.05125099 13.66326568 -11.71609059 12.24116687 -14 10 C-17.45749949 9.33323122 -17.45749949 9.33323122 -21 10 C-23.82196752 12.13319047 -24.87226792 13.33529048 -25.54589844 16.84082031 C-25.5668457 17.90913086 -25.58779297 18.97744141 -25.609375 20.078125 C-25.64160156 21.23828125 -25.67382812 22.3984375 -25.70703125 23.59375 C-25.72830078 25.40359375 -25.72830078 25.40359375 -25.75 27.25 C-25.77964844 28.47203125 -25.80929687 29.6940625 -25.83984375 30.953125 C-25.91051413 33.96839445 -25.95752397 36.98420161 -26 40 C-30.95 40 -35.9 40 -41 40 C-41 25.81 -41 11.62 -41 -3 C-36.38 -3 -31.76 -3 -27 -3 C-26.67 -2.01 -26.34 -1.02 -26 0 C-25.278125 -0.474375 -24.55625 -0.94875 -23.8125 -1.4375 C-16.33521452 -5.59154749 -7.22351697 -4.24912763 0 0 Z " fill="#F9F9F9" transform="translate(914,109)"/>
<path d="M0 0 C5.28 0 10.56 0 16 0 C16.66 3.3 17.32 6.6 18 10 C18.66 10 19.32 10 20 10 C21.65 14.62 23.3 19.24 25 24 C27.69656631 19.95515053 29.08108943 15.52995857 30.70117188 10.98046875 C33.76930797 2.5529031 33.76930797 2.5529031 36 0 C39.35546875 -0.48828125 39.35546875 -0.48828125 43.1875 -0.3125 C44.45980469 -0.26738281 45.73210938 -0.22226563 47.04296875 -0.17578125 C48.01878906 -0.11777344 48.99460937 -0.05976562 50 0 C48.63592479 8.02135529 45.29101546 15.71286003 41.5 22.875 C38.1529657 29.29280546 36.18991793 36.1174008 34 43 C28.39 43 22.78 43 17 43 C14.26598805 37.00620456 11.77180401 30.94282535 9.36401367 24.8125 C7.2092299 19.38714722 4.76994829 14.14501265 2.19921875 8.90234375 C1 6 1 6 0 0 Z " fill="#F4F4F4" transform="translate(531,106)"/>
<path d="M0 0 C-0.55621475 3.33161286 -1.17252643 5.30479668 -2.875 8.3125 C-11.76770944 25.70845715 -9.12605385 48.09895211 -3.71630859 66.02636719 C-2.7950219 68.56477266 -1.46498704 70.74022528 0 73 C0 73.66 0 74.32 0 75 C-12.09752986 76.03131851 -12.09752986 76.03131851 -15.90234375 73.96875 C-25.28192848 62.22179404 -25.22574364 40.03169273 -23.65625 25.90625 C-23.19649354 23.23966256 -22.63472103 20.63012525 -22 18 C-21.79375 17.05253906 -21.5875 16.10507813 -21.375 15.12890625 C-20.21575145 10.27455295 -19.00259913 5.19481761 -15.9375 1.171875 C-11.34939258 -1.60318997 -5.1445205 -0.43857211 0 0 Z " fill="#F5F5F5" transform="translate(621,165)"/>
<path d="M0 0 C2.26979665 -0.10794277 4.54105196 -0.18556176 6.8125 -0.25 C8.07707031 -0.29640625 9.34164062 -0.3428125 10.64453125 -0.390625 C14 0 14 0 15.88671875 1.875 C17.11458221 4.2187113 18.09492364 6.51104002 19 9 C19.2371875 9.61101562 19.474375 10.22203125 19.71875 10.8515625 C20.50766173 12.89484387 21.28368302 14.92984393 22 17 C22.35449219 18.0003125 22.70898438 19.000625 23.07421875 20.03125 C24.50179102 25.1456947 24.34041783 30.35263642 24.3125 35.625 C24.30621582 37.22915771 24.30621582 37.22915771 24.29980469 38.86572266 C24.12316046 51.22893919 21.55732567 62.23358285 15.82421875 73.26171875 C14 75 14 75 10.64453125 75.390625 C9.37996094 75.34421875 8.11539063 75.2978125 6.8125 75.25 C5.54019531 75.21390625 4.26789062 75.1778125 2.95703125 75.140625 C1.98121094 75.09421875 1.00539063 75.0478125 0 75 C1.54269924 70.27934033 3.07794619 65.58335908 5 61 C5.66 61 6.32 61 7 61 C9.30488569 42.68439049 9.85845003 22.46288339 1.3125 5.6875 C0 3 0 3 0 0 Z " fill="#F4F4F4" transform="translate(759,165)"/>
<path d="M0 0 C4.95 0 9.9 0 15 0 C15 3.63 15 7.26 15 11 C18.3 11 21.6 11 25 11 C25 14.96 25 18.92 25 23 C21.7 23 18.4 23 15 23 C15.33 29.27 15.66 35.54 16 42 C20.455 41.505 20.455 41.505 25 41 C26.47075246 45.41225737 27.36884358 48.48281619 26 53 C20.18636715 54.93787762 13.26513817 55.10994788 7.4375 53.12890625 C3.79889302 51.08887844 2.36391427 49.92934458 0.80078125 45.9375 C-0.34444353 41.3439231 -0.21801969 36.76714961 -0.125 32.0625 C-0.11597656 31.18787109 -0.10695313 30.31324219 -0.09765625 29.41210938 C-0.0742957 27.27461936 -0.03843247 25.13727214 0 23 C-1.98 23 -3.96 23 -6 23 C-6 19.37 -6 15.74 -6 12 C-4.02 12 -2.04 12 0 12 C0 8.04 0 4.08 0 0 Z " fill="#F3F3F3" transform="translate(926,96)"/>
<path d="M0 0 C4.95 0 9.9 0 15 0 C15 3.63 15 7.26 15 11 C18.3 11 21.6 11 25 11 C25 14.63 25 18.26 25 22 C21.7 22 18.4 22 15 22 C15.14019692 24.81288705 15.28687955 27.62516885 15.4375 30.4375 C15.47681641 31.23994141 15.51613281 32.04238281 15.55664062 32.86914062 C15.4054296 36.75239561 15.4054296 36.75239561 17 40 C19.98889359 40.45765667 22.98969648 40.70320951 26 41 C26.66 44.3 27.32 47.6 28 51 C23.6489388 53.1755306 21.30099386 53.29832384 16.5 53.3125 C15.1903125 53.32925781 13.880625 53.34601563 12.53125 53.36328125 C8.93041758 52.99284163 7.47115568 52.59093108 5 50 C5 49.34 5 48.68 5 48 C3.68 47.67 2.36 47.34 1 47 C0.24636948 43.64908229 -0.11979937 40.56890188 -0.09765625 37.13671875 C-0.09443359 36.25048828 -0.09121094 35.36425781 -0.08789062 34.45117188 C-0.07951172 33.53916016 -0.07113281 32.62714844 -0.0625 31.6875 C-0.05798828 30.75615234 -0.05347656 29.82480469 -0.04882812 28.86523438 C-0.03709234 26.57675627 -0.02067363 24.28841192 0 22 C-1.98 22 -3.96 22 -6 22 C-6 18.37 -6 14.74 -6 11 C-4.02 11 -2.04 11 0 11 C0 7.37 0 3.74 0 0 Z " fill="#F6F6F6" transform="translate(341,172)"/>
<path d="M0 0 C4.95 0 9.9 0 15 0 C15 3.63 15 7.26 15 11 C18.3 11 21.6 11 25 11 C25 14.63 25 18.26 25 22 C21.7 22 18.4 22 15 22 C15.14019692 24.81288705 15.28687955 27.62516885 15.4375 30.4375 C15.47681641 31.23994141 15.51613281 32.04238281 15.55664062 32.86914062 C15.4054296 36.75239561 15.4054296 36.75239561 17 40 C18.34747084 40.23075082 19.70377565 40.41153063 21.0625 40.5625 C22.361875 40.706875 23.66125 40.85125 25 41 C26.62950412 45.12168689 27.26264601 47.70700357 26 52 C20.10130226 53.96623258 12.31602331 54.55573172 6.59375 51.87109375 C2.72929023 48.7353139 1.19554575 45.87156958 0 41 C-0.22481043 37.70254329 -0.18966794 34.42803956 -0.125 31.125 C-0.11597656 30.24585938 -0.10695313 29.36671875 -0.09765625 28.4609375 C-0.07424577 26.3071729 -0.0383801 24.15354986 0 22 C-1.98 22 -3.96 22 -6 22 C-6 18.37 -6 14.74 -6 11 C-4.02 11 -2.04 11 0 11 C0 7.37 0 3.74 0 0 Z " fill="#F7F7F7" transform="translate(438,172)"/>
<path d="M0 0 C5.28 0 10.56 0 16 0 C16 19.8 16 39.6 16 60 C10.72 60 5.44 60 0 60 C0 40.2 0 20.4 0 0 Z " fill="#EEEEEE" transform="translate(627,90)"/>
<path d="M0 0 C5.28 0 10.56 0 16 0 C16 18.48 16 36.96 16 56 C10.72 56 5.44 56 0 56 C0 37.52 0 19.04 0 0 Z " fill="#FBFBFB" transform="translate(742,169)"/>
<path d="M0 0 C5.28 0 10.56 0 16 0 C16 18.48 16 36.96 16 56 C10.72 56 5.44 56 0 56 C0 37.52 0 19.04 0 0 Z " fill="#FAFAFA" transform="translate(246,169)"/>
<path d="M0 0 C17.81088825 0 17.81088825 0 21.4921875 3.36328125 C25.75489828 8.21602827 26.35876547 12.28090208 26.27734375 18.49609375 C25.72552439 23.47801218 23.11640521 26.0862755 19.375 29.1484375 C15.17795535 31.45098283 12.29297608 31.46774254 7.625 31.25 C3.850625 31.12625 3.850625 31.12625 0 31 C0 20.77 0 10.54 0 0 Z " fill="#0A0A0A" transform="translate(696,181)"/>
<path d="M0 0 C17.47058824 0 17.47058824 0 24 6 C26.72720312 10.44714656 26.66481782 14.92976291 26 20 C24.1875 23.4375 24.1875 23.4375 22 26 C21.525625 26.5775 21.05125 27.155 20.5625 27.75 C14.23405381 32.81275695 8.24916424 31 0 31 C0 20.77 0 10.54 0 0 Z " fill="#080808" transform="translate(445,106)"/>
<path d="M0 0 C5.28 0 10.56 0 16 0 C16 14.52 16 29.04 16 44 C10.72 44 5.44 44 0 44 C0 29.48 0 14.96 0 0 Z " fill="#EEEEEE" transform="translate(370,181)"/>
<path d="M0 0 C5.28 0 10.56 0 16 0 C16 14.52 16 29.04 16 44 C10.72 44 5.44 44 0 44 C0 29.48 0 14.96 0 0 Z " fill="#EEEEEE" transform="translate(318,181)"/>
<path d="M0 0 C4.95 0 9.9 0 15 0 C15 14.19 15 28.38 15 43 C10.05 43 5.1 43 0 43 C0 28.81 0 14.62 0 0 Z " fill="#FBFBFB" transform="translate(467,182)"/>
<path d="M0 0 C0.33 0 0.66 0 1 0 C1 14.19 1 28.38 1 43 C0.34 42.67 -0.32 42.34 -1 42 C-1.4140625 39.71484375 -1.4140625 39.71484375 -1.625 36.9375 C-1.69976562 36.01839844 -1.77453125 35.09929687 -1.8515625 34.15234375 C-1.90054687 33.44207031 -1.94953125 32.73179687 -2 32 C-2.62648438 32.02320313 -3.25296875 32.04640625 -3.8984375 32.0703125 C-4.71570313 32.08835938 -5.53296875 32.10640625 -6.375 32.125 C-7.18710937 32.14820313 -7.99921875 32.17140625 -8.8359375 32.1953125 C-11 32 -11 32 -13 30 C-13.14517744 27.0906442 -13.18630796 24.280054 -13.125 21.375 C-13.11597656 20.57320312 -13.10695313 19.77140625 -13.09765625 18.9453125 C-13.07406223 16.96341477 -13.03819065 14.98167019 -13 13 C-9.7 13 -6.4 13 -3 13 C-3 9.37 -3 5.74 -3 2 C-2.34 2.33 -1.68 2.66 -1 3 C-0.67 2.01 -0.34 1.02 0 0 Z " fill="#050505" transform="translate(369,181)"/>
<path d="M0 0 C2.18975773 3.28463659 2.99806563 6.20696275 4 10 C4.78375 9.505 5.5675 9.01 6.375 8.5 C12.31864704 6.04055985 17.68135296 6.04055985 23.625 8.5 C24.40875 8.995 25.1925 9.49 26 10 C26 11.32 26 12.64 26 14 C24.28103516 14.05607422 24.28103516 14.05607422 22.52734375 14.11328125 C20.99736554 14.17898584 19.46741903 14.24543159 17.9375 14.3125 C17.18533203 14.33505859 16.43316406 14.35761719 15.65820312 14.38085938 C10.45295522 14.62872832 6.61882246 15.53741353 2 18 C-0.73856604 21.9753378 -1.6983356 25.21141301 -1 30 C0.9524999 33.43370673 3.06060974 36.35454877 6 39 C1.25 40.125 1.25 40.125 -1 39 C-1 38.34 -1 37.68 -1 37 C-1.66 37 -2.32 37 -3 37 C-3.33 37.66 -3.66 38.32 -4 39 C-4.33 27.12 -4.66 15.24 -5 3 C-4.34 2.67 -3.68 2.34 -3 2 C-2.34 2.66 -1.68 3.32 -1 4 C-0.67 2.68 -0.34 1.36 0 0 Z " fill="#0B0B0B" transform="translate(313,110)"/>
<path d="M0 0 C2.00396547 2.07818642 2.37844086 2.89120296 2.6875 5.75 C2.831875 7.049375 2.97625 8.34875 3.125 9.6875 C3.07036034 13.34152751 2.69998523 13.73538314 0.125 16.75 C-3.83731136 19.05534479 -5.80805181 19.50074136 -10.3125 18.75 C-12.67747439 16.88291495 -13.97280715 15.42938569 -15.3125 12.75 C-15.45890501 11.10857459 -15.53346589 9.4601859 -15.5625 7.8125 C-15.58828125 6.93722656 -15.6140625 6.06195313 -15.640625 5.16015625 C-15.25126559 2.30021866 -14.56808041 1.48166809 -12.3125 -0.25 C-8.23167493 -1.79789917 -3.87827815 -2.09636657 0 0 Z " fill="#0D0D0D" transform="translate(676.3125,119.25)"/>
<path d="M0 0 C0.99 2.97 1.98 5.94 3 9 C4.39412109 8.73123047 4.39412109 8.73123047 5.81640625 8.45703125 C18.62874669 6.25261397 18.62874669 6.25261397 24 10 C24.66796875 12.1171875 24.66796875 12.1171875 25 14 C23.94941406 14.02578125 22.89882813 14.0515625 21.81640625 14.078125 C10.33159994 14.36676092 10.33159994 14.36676092 0 19 C-2.68495774 23.02743661 -2.57173628 26.26867516 -2 31 C-0.66829691 33.97984167 -0.66829691 33.97984167 1 36 C-1.97 36.495 -1.97 36.495 -5 37 C-5.07404737 32.05211686 -5.12855246 27.10455476 -5.16479492 22.15625 C-5.17990003 20.4722736 -5.20038546 18.78833665 -5.22631836 17.10449219 C-5.26262721 14.68675007 -5.27970847 12.26952708 -5.29296875 9.8515625 C-5.30845261 9.0963028 -5.32393646 8.34104309 -5.33988953 7.56289673 C-5.34057617 5.43994141 -5.34057617 5.43994141 -5 2 C-2 0 -2 0 0 0 Z " fill="#0B0B0B" transform="translate(391,185)"/>
<path d="M0 0 C2.5 1.3125 2.5 1.3125 4 4 C4.86597538 9.36079996 4.92503462 13.52572607 2 18.1875 C-2.16760838 20.70543006 -4.17478601 20.68931628 -9 20 C-11.2265625 18.34765625 -11.2265625 18.34765625 -13 16 C-13.42578125 13.0546875 -13.42578125 13.0546875 -13.3125 9.875 C-13.28800781 8.82054688 -13.26351562 7.76609375 -13.23828125 6.6796875 C-13 4 -13 4 -12 2 C-8.38196204 -0.60498733 -4.27547342 -0.6570912 0 0 Z " fill="#0B0B0B" transform="translate(725,118)"/>
<path d="M0 0 C0.85464844 -0.01417969 1.70929688 -0.02835938 2.58984375 -0.04296875 C5.0625 0.1875 5.0625 0.1875 9.0625 2.1875 C9.0625 5.1575 9.0625 8.1275 9.0625 11.1875 C8.4025 11.1875 7.7425 11.1875 7.0625 11.1875 C7.0625 11.8475 7.0625 12.5075 7.0625 13.1875 C6.4025 13.1875 5.7425 13.1875 5.0625 13.1875 C5.0625 13.8475 5.0625 14.5075 5.0625 15.1875 C-3.81975399 15.48859336 -3.81975399 15.48859336 -7.9375 13.1875 C-10.25082486 9.71751271 -10.27707563 8.26240752 -9.9375 4.1875 C-7.14170623 -0.00619066 -4.74380318 0.03566769 0 0 Z " fill="#F0F0F0" transform="translate(474.9375,160.8125)"/>
<path d="M0 0 C1.77734375 1.21875 1.77734375 1.21875 2.71484375 5.03125 C2.88809241 7.74877895 2.69890397 9.53250913 2.02734375 12.21875 C-1.29952974 15.17597088 -4.28453238 14.85221472 -8.61328125 14.62890625 C-11.22265625 14.21875 -11.22265625 14.21875 -13.91015625 12.71875 C-15.91120299 8.9072324 -15.76751468 6.50951011 -15.22265625 2.21875 C-11.94608659 -2.33995561 -4.85409503 -1.70618454 0 0 Z " fill="#F2F2F2" transform="translate(384.22265625,161.78125)"/>
<path d="M0 0 C1.9375 1.9375 1.9375 1.9375 2.5 5.3125 C1.84910612 9.50714942 1.17766989 11.19581779 -2.0625 13.9375 C-6.55227225 14.50892556 -10.07172065 14.10392307 -14.0625 11.9375 C-16.53193529 8.23334707 -16.53163089 6.31605495 -16.0625 1.9375 C-12.41307257 -2.98129349 -5.14480533 -1.78493246 0 0 Z " fill="#F4F4F4" transform="translate(333.0625,162.0625)"/>
<path d="M0 0 C0.33 0 0.66 0 1 0 C1.02698422 2.43757413 1.04683099 4.87484915 1.0625 7.3125 C1.07087891 8.00279297 1.07925781 8.69308594 1.08789062 9.40429688 C1.10307906 12.5483025 1.00193327 14.99420019 0 18 C-3.63 18.33 -7.26 18.66 -11 19 C-11 19.66 -11 20.32 -11 21 C-14.80419286 23.91490102 -17.58906677 24.34321758 -22.3125 24.1875 C-23.91544922 24.14689453 -23.91544922 24.14689453 -25.55078125 24.10546875 C-26.35902344 24.07066406 -27.16726563 24.03585938 -28 24 C-28.66 22.68 -29.32 21.36 -30 20 C-30.66 20 -31.32 20 -32 20 C-32 19.01 -32 18.02 -32 17 C-21.77 17 -11.54 17 -1 17 C-1.66 12.05 -2.32 7.1 -3 2 C-2.34 2 -1.68 2 -1 2 C-0.67 1.34 -0.34 0.68 0 0 Z " fill="#242424" transform="translate(626,114)"/>
<path d="M0 0 C0.66 0 1.32 0 2 0 C2 11.88 2 23.76 2 36 C0.66666667 36 -0.66666667 36 -2 36 C-2 24.78 -2 13.56 -2 2 C-1.34 2 -0.68 2 0 2 C0 1.34 0 0.68 0 0 Z " fill="#0D0D0D" transform="translate(316,189)"/>
<path d="M0 0 C10.23 0 20.46 0 31 0 C31 0.33 31 0.66 31 1 C24.565 1.495 24.565 1.495 18 2 C19.06645115 3.29633621 19.06645115 3.29633621 21.5625 3.0625 C22.366875 3.041875 23.17125 3.02125 24 3 C24 4.32 24 5.64 24 7 C23.34 7 22.68 7 22 7 C22 6.34 22 5.68 22 5 C20.35 5 18.7 5 17 5 C17 5.66 17 6.32 17 7 C6.12011967 7.62468212 6.12011967 7.62468212 1.75 5.1875 C0 3 0 3 0 0 Z " fill="#313131" transform="translate(839,131)"/>
<path d="M0 0 C10.23 0 20.46 0 31 0 C31 0.33 31 0.66 31 1 C25.06 1.495 25.06 1.495 19 2 C19.66 2.66 20.32 3.32 21 4 C15.57910051 7.51625913 10.27565325 7.90071778 4 7 C1.3125 5.1875 1.3125 5.1875 0 3 C0 2.01 0 1.02 0 0 Z " fill="#292929" transform="translate(503,131)"/>
<path d="M0 0 C0.78375 0.495 1.5675 0.99 2.375 1.5 C2.375 2.82 2.375 4.14 2.375 5.5 C-8.02 5.995 -8.02 5.995 -18.625 6.5 C-18.955 4.85 -19.285 3.2 -19.625 1.5 C-13.28174038 -2.50626924 -6.85836074 -2.83794238 0 0 Z " fill="#101010" transform="translate(336.625,118.5)"/>
<path d="M0 0 C3 2.3125 3 2.3125 5 5 C5 5.99 5 6.98 5 8 C-0.94 8 -6.88 8 -13 8 C-10.52445387 0.57336161 -7.71450386 -1.50087624 0 0 Z " fill="#282828" transform="translate(515,116)"/>
<path d="M0 0 C4.77243643 0.74055048 6.31902521 2.09525815 9.625 5.5625 C9.625 6.5525 9.625 7.5425 9.625 8.5625 C3.685 8.5625 -2.255 8.5625 -8.375 8.5625 C-7.02941394 3.18015577 -5.6159418 0.9359903 0 0 Z " fill="#050505" transform="translate(601.375,115.4375)"/>
<path d="M0 0 C3.34265205 1.20706879 3.94704566 1.92056849 6 5 C6 5.99 6 6.98 6 8 C0.39 8 -5.22 8 -11 8 C-10 3 -10 3 -8.3125 1.1875 C-5.31645776 -0.35100818 -3.33212821 -0.34709669 0 0 Z " fill="#131313" transform="translate(850,116)"/>
<path d="M0 0 C4.34939555 0.10317909 6.9469421 1.48482434 10.25 4.375 C10.25 5.365 10.25 6.355 10.25 7.375 C4.31 7.375 -1.63 7.375 -7.75 7.375 C-5 0.5 -5 0.5 0 0 Z " fill="#202020" transform="translate(551.75,191.625)"/>
<path d="M0 0 C0.91007812 0.00902344 1.82015625 0.01804688 2.7578125 0.02734375 C3.45648438 0.03894531 4.15515625 0.05054688 4.875 0.0625 C4.625 3.4375 4.625 3.4375 3.875 7.0625 C1.50575446 9.0807462 -0.14223845 9.06387908 -3.25 9.3125 C-6.125 9.0625 -6.125 9.0625 -8.125 7.0625 C-7.875 4 -7.875 4 -7.125 1.0625 C-4.60024538 -0.19987731 -2.81299534 -0.03606404 0 0 Z " fill="#0E0E0E" transform="translate(411.125,206.9375)"/>
<path d="M0 0 C1.50433594 0.01353516 1.50433594 0.01353516 3.0390625 0.02734375 C3.80992187 0.03894531 4.58078125 0.05054688 5.375 0.0625 C4.625 5.8125 4.625 5.8125 2.375 8.0625 C0.5 8.328125 0.5 8.328125 -1.625 8.3125 C-2.32625 8.31765625 -3.0275 8.3228125 -3.75 8.328125 C-5.625 8.0625 -5.625 8.0625 -7.625 6.0625 C-7.75 3.4375 -7.75 3.4375 -7.625 1.0625 C-4.98041621 -0.25979189 -2.94738699 -0.03427194 0 0 Z " fill="#101010" transform="translate(333.625,131.9375)"/>
<path d="M0 0 C0.33 0 0.66 0 1 0 C1.04898438 0.71285156 1.09796875 1.42570312 1.1484375 2.16015625 C1.58128523 7.70508491 2.24028816 12.72086449 4 18 C3.01 18.33 2.02 18.66 1 19 C1.061875 19.94875 1.12375 20.8975 1.1875 21.875 C1.125625 22.90625 1.06375 23.9375 1 25 C0.01 25.66 -0.98 26.32 -2 27 C-2.05811773 23.25006521 -2.09363593 19.50024648 -2.125 15.75 C-2.14175781 14.68652344 -2.15851562 13.62304688 -2.17578125 12.52734375 C-2.18222656 11.50253906 -2.18867187 10.47773438 -2.1953125 9.421875 C-2.20578613 8.47924805 -2.21625977 7.53662109 -2.22705078 6.56542969 C-1.99119213 3.90048059 -1.35661659 2.28136908 0 0 Z " fill="#1D1D1D" transform="translate(645,122)"/>
<path d="M0 0 C0.99 0 1.98 0 3 0 C4.50156874 3.00313748 4.09281204 5.79067522 4.0625 9.125 C4.05347656 10.40632812 4.04445313 11.68765625 4.03515625 13.0078125 C4.02355469 13.99523437 4.01195312 14.98265625 4 16 C1.69 16.66 -0.62 17.32 -3 18 C-2.690625 16.88625 -2.38125 15.7725 -2.0625 14.625 C-0.84199336 9.79490988 -0.38600363 4.95709931 0 0 Z " fill="#050505" transform="translate(738,192)"/>
<path d="M0 0 C0.33 0 0.66 0 1 0 C1.08133791 1.91595968 1.13934367 3.83291932 1.1875 5.75 C1.22230469 6.81734375 1.25710938 7.8846875 1.29296875 8.984375 C0.97082786 12.30027855 0.22851086 13.59016673 -2 16 C-2 15.34 -2 14.68 -2 14 C-5.3 14 -8.6 14 -12 14 C-12 19.28 -12 24.56 -12 30 C-12.33 30 -12.66 30 -13 30 C-13 24.39 -13 18.78 -13 13 C-9.7 13 -6.4 13 -3 13 C-3 9.37 -3 5.74 -3 2 C-2.34 2.33 -1.68 2.66 -1 3 C-0.67 2.01 -0.34 1.02 0 0 Z " fill="#1C1C1C" transform="translate(369,181)"/>
<path d="M0 0 C0.33 0 0.66 0 1 0 C1 14.19 1 28.38 1 43 C0.67 43 0.34 43 0 43 C0 33.1 0 23.2 0 13 C-0.66 13 -1.32 13 -2 13 C-1.67 13.66 -1.34 14.32 -1 15 C-0.93003986 16.70702735 -0.91559846 18.41668003 -0.9375 20.125 C-0.94652344 21.03507812 -0.95554687 21.94515625 -0.96484375 22.8828125 C-0.98224609 23.93082031 -0.98224609 23.93082031 -1 25 C-1.33 25 -1.66 25 -2 25 C-2.13277344 24.09636719 -2.26554688 23.19273437 -2.40234375 22.26171875 C-2.57894531 21.08222656 -2.75554688 19.90273437 -2.9375 18.6875 C-3.11152344 17.51574219 -3.28554688 16.34398437 -3.46484375 15.13671875 C-3.92093031 11.98358597 -3.92093031 11.98358597 -5 9 C-3.68 8.67 -2.36 8.34 -1 8 C-0.67 5.36 -0.34 2.72 0 0 Z " fill="#4D4D4D" transform="translate(872,106)"/>
<path d="M0 0 C0.89395329 1.90790032 1.76459334 3.82673806 2.625 5.75 C3.11226562 6.81734375 3.59953125 7.8846875 4.1015625 8.984375 C5 12 5 12 4.1484375 14.390625 C3.76945313 14.92171875 3.39046875 15.4528125 3 16 C1.88158632 13.91229447 1.0291824 12.14591199 0.5625 9.8125 C0.376875 9.214375 0.19125 8.61625 0 8 C-0.99 7.67 -1.98 7.34 -3 7 C-3 6.34 -3 5.68 -3 5 C-4.2065625 4.566875 -4.2065625 4.566875 -5.4375 4.125 C-8 3 -8 3 -9 1 C-6.04335481 -0.4783226 -3.25770263 -0.06032783 0 0 Z " fill="#232323" transform="translate(531,106)"/>
<path d="M0 0 C0.66 0.99 1.32 1.98 2 3 C1.38125 3.2475 0.7625 3.495 0.125 3.75 C-4.27514248 6.33831911 -4.73989605 11.31961391 -6 16 C-6.66 15.34 -7.32 14.68 -8 14 C-8.99 14.495 -8.99 14.495 -10 15 C-9.57316761 13.41375765 -9.13303842 11.8310902 -8.6875 10.25 C-8.32205078 8.92742187 -8.32205078 8.92742187 -7.94921875 7.578125 C-6.96677491 4.90975902 -5.88611396 3.11706669 -4 1 C-1.8125 0.25 -1.8125 0.25 0 0 Z " fill="#1B1B1B" transform="translate(536,183)"/>
<path d="M0 0 C0.33 0 0.66 0 1 0 C1.2475 1.216875 1.495 2.43375 1.75 3.6875 C2.96577652 8.59402668 5.46744659 11.46744659 9 15 C4.25 16.125 4.25 16.125 2 15 C2 14.34 2 13.68 2 13 C1.34 13 0.68 13 0 13 C-0.33 13.66 -0.66 14.32 -1 15 C-1.10251672 9.87416389 -1.03590199 5.05002222 0 0 Z " fill="#141414" transform="translate(310,134)"/>
<path d="M0 0 C0.94875 0.04125 1.8975 0.0825 2.875 0.125 C1.39 2.6 1.39 2.6 -0.125 5.125 C3.505 5.455 7.135 5.785 10.875 6.125 C10.875 6.455 10.875 6.785 10.875 7.125 C5.265 7.125 -0.345 7.125 -6.125 7.125 C-4.73790323 0.18951613 -4.73790323 0.18951613 0 0 Z " fill="#363636" transform="translate(845.125,116.875)"/>
<path d="M0 0 C0.9075 0.103125 1.815 0.20625 2.75 0.3125 C2.1725 0.56 1.595 0.8075 1 1.0625 C-1.66642803 2.54384891 -3.2975726 3.95813181 -5.25 6.3125 C-5.88735866 9.10307324 -5.88735866 9.10307324 -5.859375 12.171875 C-5.89160156 13.28691406 -5.92382812 14.40195313 -5.95703125 15.55078125 C-5.97121094 16.70964844 -5.98539063 17.86851562 -6 19.0625 C-6.02964844 20.23683594 -6.05929687 21.41117188 -6.08984375 22.62109375 C-6.16050727 25.51829822 -6.21322266 28.41469955 -6.25 31.3125 C-6.58 31.3125 -6.91 31.3125 -7.25 31.3125 C-7.36633933 27.08356532 -7.43729952 22.85504326 -7.5 18.625 C-7.53351562 17.42681641 -7.56703125 16.22863281 -7.6015625 14.99414062 C-7.61445312 13.83720703 -7.62734375 12.68027344 -7.640625 11.48828125 C-7.66157227 10.42520752 -7.68251953 9.36213379 -7.70410156 8.2668457 C-6.95351167 3.38357241 -5.01392807 0.48210847 0 0 Z " fill="#484848" transform="translate(799.25,117.6875)"/>
<path d="M0 0 C0 0.33 0 0.66 0 1 C-1.98 1 -3.96 1 -6 1 C-6.12375 1.639375 -6.2475 2.27875 -6.375 2.9375 C-6.58125 3.618125 -6.7875 4.29875 -7 5 C-7.99 5.495 -7.99 5.495 -9 6 C-2.07 6.495 -2.07 6.495 5 7 C5.33 6.34 5.66 5.68 6 5 C6 5.99 6 6.98 6 8 C0.06 8 -5.88 8 -12 8 C-10.18999825 0.759993 -7.2714222 -0.55934017 0 0 Z " fill="#747474" transform="translate(605,116)"/>
<path d="M0 0 C0.66 0.33 1.32 0.66 2 1 C2.18451025 13.66970387 2.18451025 13.66970387 1 19 C0.67 19 0.34 19 0 19 C0 15.04 0 11.08 0 7 C-0.66 7 -1.32 7 -2 7 C-1.125 1.125 -1.125 1.125 0 0 Z " fill="#141414" transform="translate(694,113)"/>
<path d="M0 0 C0.91007812 0.00902344 1.82015625 0.01804688 2.7578125 0.02734375 C3.45648438 0.03894531 4.15515625 0.05054688 4.875 0.0625 C4.875 0.3925 4.875 0.7225 4.875 1.0625 C2.235 1.3925 -0.405 1.7225 -3.125 2.0625 C-3.125 3.3825 -3.125 4.7025 -3.125 6.0625 C-4.115 6.5575 -4.115 6.5575 -5.125 7.0625 C-3.475 7.3925 -1.825 7.7225 -0.125 8.0625 C-0.125 8.3925 -0.125 8.7225 -0.125 9.0625 C-3 9.1875 -3 9.1875 -6.125 9.0625 C-6.785 8.4025 -7.445 7.7425 -8.125 7.0625 C-7.875 4 -7.875 4 -7.125 1.0625 C-4.60024538 -0.19987731 -2.81299534 -0.03606404 0 0 Z " fill="#282828" transform="translate(411.125,206.9375)"/>
<path d="M0 0 C-1.32 0.33 -2.64 0.66 -4 1 C-3.773125 1.598125 -3.54625 2.19625 -3.3125 2.8125 C-3 5 -3 5 -4.1875 6.75 C-6 8 -6 8 -10 8 C-10.33 6.35 -10.66 4.7 -11 3 C-7.14243493 0.84694043 -4.44870215 -0.39253254 0 0 Z " fill="#242424" transform="translate(328,117)"/>
<path d="M0 0 C0.33 0.99 0.66 1.98 1 3 C6.28 3 11.56 3 17 3 C17 3.33 17 3.66 17 4 C11.72 4 6.44 4 1 4 C1 6.31 1 8.62 1 11 C0.34 10.01 -0.32 9.02 -1 8 C-1.99 8.495 -1.99 8.495 -3 9 C-2.01 6.03 -1.02 3.06 0 0 Z " fill="#272727" transform="translate(621,165)"/>
<path d="M0 0 C0.33 0 0.66 0 1 0 C1 5.28 1 10.56 1 16 C0.01 16.33 -0.98 16.66 -2 17 C-2.05398987 14.72942623 -2.09278742 12.45848712 -2.125 10.1875 C-2.14820313 8.92292969 -2.17140625 7.65835938 -2.1953125 6.35546875 C-2 3 -2 3 0 0 Z " fill="#2F2F2F" transform="translate(437,194)"/>
<path d="M0 0 C0 1.65 0 3.3 0 5 C-2.25 5.25 -2.25 5.25 -5 5 C-7.3125 3 -7.3125 3 -9 1 C-6.04335481 -0.4783226 -3.25770263 -0.06032783 0 0 Z " fill="#161616" transform="translate(531,106)"/>
<path d="M0 0 C-1 1 -2 2 -3 3 C-4.2684375 4.3303125 -4.2684375 4.3303125 -5.5625 5.6875 C-8 8 -8 8 -10 8 C-9.64505955 5.37344067 -9.27538036 3.42031739 -7.8125 1.1875 C-5.20638339 -0.51995571 -3.0400645 -0.20267097 0 0 Z " fill="#3B3B3B" transform="translate(260,118)"/>
<path d="M0 0 C0.33 0 0.66 0 1 0 C1.12117188 0.61488281 1.24234375 1.22976562 1.3671875 1.86328125 C1.53476562 2.67152344 1.70234375 3.47976562 1.875 4.3125 C2.03742188 5.11300781 2.19984375 5.91351563 2.3671875 6.73828125 C2.94478999 9.25301118 2.94478999 9.25301118 5 12 C3.02 12.33 1.04 12.66 -1 13 C-0.67 8.71 -0.34 4.42 0 0 Z " fill="#242424" transform="translate(387,209)"/>
<path d="M0 0 C0.33 0.66 0.66 1.32 1 2 C1.66 2 2.32 2 3 2 C2.40072174 5.35595828 1.15377564 7.37801226 -1 10 C-1.66 8.68 -2.32 7.36 -3 6 C-2.34 6 -1.68 6 -1 6 C-0.67 4.02 -0.34 2.04 0 0 Z " fill="#1E1E1E" transform="translate(508,196)"/>
<path d="M0 0 C0.33 0 0.66 0 1 0 C1.02703381 1.93742341 1.04641125 3.87495479 1.0625 5.8125 C1.07410156 6.89144531 1.08570313 7.97039062 1.09765625 9.08203125 C1 12 1 12 0 15 C0.66 15 1.32 15 2 15 C1.67 15.66 1.34 16.32 1 17 C-1.0625 17.625 -1.0625 17.625 -3 18 C-2.690625 16.88625 -2.38125 15.7725 -2.0625 14.625 C-0.84199336 9.79490988 -0.38600363 4.95709931 0 0 Z " fill="#363636" transform="translate(738,192)"/>
<path d="M0 0 C2.78637633 4.1795645 1.79562512 6.14668677 1 11 C0.34 10.34 -0.32 9.68 -1 9 C-1.99 9.495 -1.99 9.495 -3 10 C-2.01 6.7 -1.02 3.4 0 0 Z " fill="#323232" transform="translate(529,188)"/>
<path d="M0 0 C2 1 2 1 3 3 C3 3.99 3 4.98 3 6 C1.35 6.33 -0.3 6.66 -2 7 C-2.33 5.02 -2.66 3.04 -3 1 C-2.01 0.67 -1.02 0.34 0 0 Z " fill="#1D1D1D" transform="translate(397,194)"/>
<path d="M0 0 C1.93166016 0.01740234 1.93166016 0.01740234 3.90234375 0.03515625 C5.19269531 0.04417969 6.48304688 0.05320313 7.8125 0.0625 C8.81152344 0.07410156 9.81054688 0.08570313 10.83984375 0.09765625 C10.50984375 1.08765625 10.17984375 2.07765625 9.83984375 3.09765625 C9.83984375 2.43765625 9.83984375 1.77765625 9.83984375 1.09765625 C0.9631011 1.2438284 0.9631011 1.2438284 -6.16015625 6.09765625 C-3.86079135 0.11930752 -3.86079135 0.11930752 0 0 Z " fill="#AEAEAE" transform="translate(610.16015625,164.90234375)"/>
<path d="M0 0 C-1.13819851 3.41459553 -2.24005518 4.3324158 -4.9375 6.625 C-5.64777344 7.23601562 -6.35804688 7.84703125 -7.08984375 8.4765625 C-9 10 -9 10 -11 11 C-9.08029626 6.46251842 -5.43285968 0 0 0 Z " fill="#C0C0C0" transform="translate(542,183)"/>
<path d="M0 0 C-0.66 0 -1.32 0 -2 0 C-2.66 2.31 -3.32 4.62 -4 7 C-5.32 6.67 -6.64 6.34 -8 6 C-7.1875 3.0625 -7.1875 3.0625 -6 0 C-3 -1 -3 -1 0 0 Z " fill="#2F2F2F" transform="translate(584,114)"/>
<path d="M0 0 C3.3 0.33 6.6 0.66 10 1 C10.33 2.65 10.66 4.3 11 6 C7.37 4.35 3.74 2.7 0 1 C0 0.67 0 0.34 0 0 Z " fill="#393939" transform="translate(677,106)"/>
<path d="M0 0 C1.65 0 3.3 0 5 0 C5.33 1.98 5.66 3.96 6 6 C3.5625 5.25 3.5625 5.25 1 4 C0.1875 1.875 0.1875 1.875 0 0 Z " fill="#1E1E1E" transform="translate(840,132)"/>
<path d="M0 0 C0.66 0.33 1.32 0.66 2 1 C1.360625 1.66 0.72125 2.32 0.0625 3 C-2.58912502 6.85690912 -2.68667121 9.37840033 -3 14 C-3.33 14 -3.66 14 -4 14 C-4.63019694 5.96498906 -4.63019694 5.96498906 -2 1.9375 C-1.34 1.298125 -0.68 0.65875 0 0 Z " fill="#C3C3C3" transform="translate(392,202)"/>
<path d="M0 0 C0.33 0.66 0.66 1.32 1 2 C-0.98 4.64 -2.96 7.28 -5 10 C-5.33 9.34 -5.66 8.68 -6 8 C-6.66 7.67 -7.32 7.34 -8 7 C-6.68 6.67 -5.36 6.34 -4 6 C-4 5.34 -4 4.68 -4 4 C-3.34 4 -2.68 4 -2 4 C-1.34 2.68 -0.68 1.36 0 0 Z " fill="#3E3E3E" transform="translate(146,140)"/>
<path d="M0 0 C1.125 1.75 1.125 1.75 2 4 C1.125 6.25 1.125 6.25 0 8 C-0.99 8 -1.98 8 -3 8 C-1.125 2.25 -1.125 2.25 0 0 Z " fill="#272727" transform="translate(486,128)"/>
<path d="M0 0 C0.33 0.66 0.66 1.32 1 2 C-1.31 1.67 -3.62 1.34 -6 1 C-6 1.66 -6 2.32 -6 3 C-8.5 4.625 -8.5 4.625 -11 6 C-8.67640938 -0.47285958 -6.6985661 -0.12404752 0 0 Z " fill="#515151" transform="translate(183,118)"/>
<path d="M0 0 C0.66 0.33 1.32 0.66 2 1 C0.71034824 2.37562854 -0.62689293 3.70766393 -2 5 C-2.66 5 -3.32 5 -4 5 C-4 6.65 -4 8.3 -4 10 C-4.33 10 -4.66 10 -5 10 C-5.25 4.375 -5.25 4.375 -3 1 C-2.01 0.67 -1.02 0.34 0 0 Z " fill="#AEAEAE" transform="translate(470,161)"/>
<path d="M0 0 C1.65 0 3.3 0 5 0 C5.33 1.32 5.66 2.64 6 4 C3.36 4 0.72 4 -2 4 C-1.34 2.68 -0.68 1.36 0 0 Z " fill="#313131" transform="translate(260,102)"/>
<path d="M0 0 C0 3 0 3 -1 6 C-3.0625 6.6875 -3.0625 6.6875 -5 7 C-5 6.34 -5 5.68 -5 5 C-5.66 4.67 -6.32 4.34 -7 4 C-4.69 2.68 -2.38 1.36 0 0 Z " fill="#2D2D2D" transform="translate(729,217)"/>
<path d="M0 0 C0 1.32 0 2.64 0 4 C-1.65 4.33 -3.3 4.66 -5 5 C-5.33 3.68 -5.66 2.36 -6 1 C-3.92446352 0.4465236 -2.15634036 0 0 0 Z " fill="#232323" transform="translate(615,148)"/>
<path d="M0 0 C1.670625 0.061875 1.670625 0.061875 3.375 0.125 C3.375 0.455 3.375 0.785 3.375 1.125 C1.395 1.125 -0.585 1.125 -2.625 1.125 C-2.728125 1.764375 -2.83125 2.40375 -2.9375 3.0625 C-3.164375 3.743125 -3.39125 4.42375 -3.625 5.125 C-4.615 5.455 -5.605 5.785 -6.625 6.125 C-5.71577947 1.57889733 -4.95184304 0.17075321 0 0 Z " fill="#3F3F3F" transform="translate(601.625,115.875)"/>
<path d="M0 0 C2 3 2 3 2 5 C3.65 5.33 5.3 5.66 7 6 C7 6.33 7 6.66 7 7 C4.125 7.125 4.125 7.125 1 7 C0.34 6.34 -0.32 5.68 -1 5 C-0.625 2.375 -0.625 2.375 0 0 Z " fill="#353535" transform="translate(404,209)"/>
<path d="M0 0 C1.32 0.33 2.64 0.66 4 1 C4.33 2.65 4.66 4.3 5 6 C3.0625 5.25 3.0625 5.25 1 4 C0.25 1.875 0.25 1.875 0 0 Z " fill="#1C1C1C" transform="translate(595,132)"/>
<path d="M0 0 C0.66 0.33 1.32 0.66 2 1 C0.02 2.98 -1.96 4.96 -4 7 C-4.66 6.67 -5.32 6.34 -6 6 C-4 4 -2 2 0 0 Z " fill="#BFBFBF" transform="translate(318,125)"/>
</svg>
