<svg width="367" height="386" viewBox="0 0 367 386" fill="none" xmlns="http://www.w3.org/2000/svg">
<path d="M112.681 16.2336C160.932 28.3108 301.998 11.2014 366.5 1.13712V-25.5333C366.5 -32.5783 279.548 -11.9465 252.407 -18.4883C225.266 -25.0301 34.2741 -23.0172 27.7402 -25.5333C22.5131 -27.5462 -5.26458 -8.59171 -18.5 1.13712V211.481V328.227L7.13315 407.735L88.0535 445.979L128.765 407.735C119.718 401.697 91.0692 381.769 48.8499 350.369C-3.92429 311.118 16.6828 282.434 34.2741 232.113C51.8655 181.791 3.11226 131.47 7.13315 73.6001C11.154 15.7304 52.3682 1.13712 112.681 16.2336Z" fill="#00A665"/>
</svg>
